<svg xmlns="http://www.w3.org/2000/svg" width="10.913" height="12.905" viewBox="0 0 10.913 12.905">
  <g id="Group_15719" data-name="Group 15719" transform="translate(-984.012 -158.004)">
    <path id="Path_80" data-name="Path 80" d="M10.835,108.432l-.262-.756a.562.562,0,0,0-.542-.378l-9.418.181a.561.561,0,0,0-.542.465s-.072.374-.09.5a.782.782,0,0,0,.08.6.647.647,0,0,0,.536.278H4.2a1.193,1.193,0,0,0,.6,1.036,1.208,1.208,0,0,0,1.808-1.038h3.606a.655.655,0,0,0,.614-.878Z" transform="translate(984.051 60.393)" fill="red"/>
    <path id="Path_81" data-name="Path 81" d="M9.377,9.106a.645.645,0,0,0,.333.09l7.761-.1a.654.654,0,0,0,.612-.856,7.449,7.449,0,0,1-.326-2.207,4.192,4.192,0,0,0-2-3.514V1.862A1.864,1.864,0,0,0,13.886,0h-.595a1.864,1.864,0,0,0-1.862,1.868V2.5A4.176,4.176,0,0,0,9.388,6.128,9.531,9.531,0,0,1,9.066,8.38a.653.653,0,0,0,.123.564.642.642,0,0,0,.188.162ZM12.8,1.867a.491.491,0,0,1,.494-.492h.6a.466.466,0,0,1,.235.064.5.5,0,0,1,.25.427v.117A4.179,4.179,0,0,0,13.52,1.9a4.257,4.257,0,0,0-.723.076Z" transform="translate(975.787 158.004)" fill="red"/>
  </g>
</svg>
