<svg xmlns="http://www.w3.org/2000/svg" width="10.943" height="10.259" viewBox="0 0 10.943 10.259">
  <path id="Path_2496" data-name="Path 2496" d="M9.874,4.55H9.621V7.409h.253A1.038,1.038,0,0,1,10.943,8.42v1.686a1.038,1.038,0,0,1-1.069,1.011H8.07A1.035,1.035,0,0,1,7,10.106V9.873H3.937v.233a1.035,1.035,0,0,1-1.065,1.011h-1.8A1.035,1.035,0,0,1,0,10.106V8.42A1.035,1.035,0,0,1,1.069,7.409h.249V4.55H1.069A1.035,1.035,0,0,1,0,3.552V1.867A1.035,1.035,0,0,1,1.069.872h1.8A1.035,1.035,0,0,1,3.937,1.884v.233H7V1.87A1.035,1.035,0,0,1,8.07.859h1.8A1.038,1.038,0,0,1,10.943,1.87V3.556A1.038,1.038,0,0,1,9.874,4.55ZM7,8.407A1.035,1.035,0,0,1,8.07,7.4H8.32V4.55H8.07A1.035,1.035,0,0,1,7,3.539V3.32H3.937v.233A1.035,1.035,0,0,1,2.872,4.564H2.619V7.422h.253A1.035,1.035,0,0,1,3.937,8.434v.233H7V8.434m-3.951.155V8.434a.172.172,0,0,0-.179-.165h-1.8a.172.172,0,0,0-.179.165v1.686a.172.172,0,0,0,.179.169h1.8a.172.172,0,0,0,.179-.169V8.562M1.069,3.718h1.8a.172.172,0,0,0,.179-.165V1.867A.172.172,0,0,0,2.872,1.7h-1.8a.172.172,0,0,0-.179.169V3.552a.172.172,0,0,0,.179.165M9.874,8.242H8.07a.172.172,0,0,0-.179.165v1.686a.172.172,0,0,0,.179.169h1.8a.172.172,0,0,0,.179-.169V8.407a.172.172,0,0,0-.179-.165M9.591,3.718h.283a.172.172,0,0,0,.179-.165V1.867A.172.172,0,0,0,9.874,1.7H8.07a.172.172,0,0,0-.179.169V3.552a.172.172,0,0,0,.179.165h1.52" transform="translate(0 -0.858)" fill="red"/>
</svg>
