<svg xmlns="http://www.w3.org/2000/svg" width="105.215" height="11.773" viewBox="0 0 105.215 11.773">
  <g id="Group_17242" data-name="Group 17242" transform="translate(-459.81 -86)">
    <path id="Path_1211" data-name="Path 1211" d="M8.822,2.22V6.634a4.414,4.414,0,1,1-8.827,0V2.22H1.572V6.634a2.837,2.837,0,1,0,5.674,0V2.22Z" transform="translate(459.815 86.712)" fill="#142033"/>
    <path id="Path_1212" data-name="Path 1212" d="M107.961,3.431l-2.837,2.181-2.837-2.181L100.71,2.22V4.211l1.577,1.212h0l1.551,1.186,1.286,1,1.286-1,1.551-1.186v5.625h1.576V2.22Z" transform="translate(370.323 86.712)" fill="#142033"/>
    <path id="Path_1213" data-name="Path 1213" d="M101.594,38.615l-.884-.675v4.847h1.577V39.152Z" transform="translate(370.323 54.973)" fill="#142033"/>
    <path id="Path_1214" data-name="Path 1214" d="M210.229,8.235a2.815,2.815,0,0,1-2.812,2.813H201.4V2.22h5.562A2.389,2.389,0,0,1,209.344,4.6a2.34,2.34,0,0,1-.378,1.286,2.813,2.813,0,0,1,1.263,2.346Zm-7.25-2.825h4a.807.807,0,0,0,0-1.614h-4Zm4.438,4.048a1.236,1.236,0,1,0,0-2.472h-4.438V9.471h4.438Z" transform="translate(280.854 86.712)" fill="#142033"/>
    <path id="Path_1215" data-name="Path 1215" d="M305.049,7.08a2.118,2.118,0,0,0,.676-.188,2.4,2.4,0,0,0,.693-3.859,2.362,2.362,0,0,0-1.677-.693H299.17V3.916h5.572a.79.79,0,0,1,.567.223.831.831,0,0,1,.24.579.8.8,0,0,1-.479.732.736.736,0,0,1-.328.076l-5.572.012v5.629h1.577V7.106h1.576a1.56,1.56,0,0,1,1.337.757l.038.076.847,1.651.807,1.577h1.765L306.31,9.59Z" transform="translate(193.979 86.606)" fill="#142033"/>
    <path id="Path_1216" data-name="Path 1216" d="M391.56,4.6v.824h5.672V7H391.56V8.664a.812.812,0,0,0,.807.807h6.444v1.577h-6.447A2.378,2.378,0,0,1,390,8.664V4.6a2.378,2.378,0,0,1,2.365-2.384h6.444V3.8h-6.444A.812.812,0,0,0,391.56,4.6Z" transform="translate(113.27 86.712)" fill="#142033"/>
    <path id="Path_1217" data-name="Path 1217" d="M497.817,9.563V11.14h-4.477a2.747,2.747,0,0,1-1.235-.284,2.8,2.8,0,0,1-1.274-1.293,2.738,2.738,0,0,1-.291-1.236V2.31h1.577V8.479a1.258,1.258,0,0,0,1.072,1.072Z" transform="translate(23.934 86.632)" fill="#142033"/>
    <path id="Path_1218" data-name="Path 1218" d="M577.826,9.563V11.14h-4.476a2.751,2.751,0,0,1-1.236-.284,2.794,2.794,0,0,1-1.274-1.293,2.737,2.737,0,0,1-.29-1.236V2.31h1.576V8.479A1.258,1.258,0,0,0,573.2,9.551Z" transform="translate(-47.16 86.632)" fill="#142033"/>
    <path id="Path_1219" data-name="Path 1219" d="M655.143,11.048h-1.765l-.807-1.577-1.93-3.783-1.929,3.789-.8,1.571H646.14l.807-1.577,3.694-7.251,3.7,7.251Z" transform="translate(-114.327 86.712)" fill="#142033"/>
    <path id="Path_1220" data-name="Path 1220" d="M744.593,8.973a4.346,4.346,0,0,1-1.74-.351,4.548,4.548,0,0,1-1.423-.961,4.5,4.5,0,0,1-.961-1.43,4.383,4.383,0,0,1-.351-1.745,4.387,4.387,0,0,1,.351-1.745,4.5,4.5,0,0,1,.961-1.43,4.548,4.548,0,0,1,1.423-.961,4.485,4.485,0,0,1,5.875,2.39,4.388,4.388,0,0,1,.351,1.745,4.383,4.383,0,0,1-.351,1.745,4.472,4.472,0,0,1-2.39,2.39,4.383,4.383,0,0,1-1.745.351Zm0-8.293a3.668,3.668,0,0,0-1.479.3,3.866,3.866,0,0,0-2.029,2.03,3.678,3.678,0,0,0-.3,1.477,3.678,3.678,0,0,0,.3,1.477,3.856,3.856,0,0,0,2.029,2.033,3.668,3.668,0,0,0,1.475.3,3.715,3.715,0,0,0,1.482-.3,3.84,3.84,0,0,0,2.038-2.031,3.676,3.676,0,0,0,.3-1.477,3.679,3.679,0,0,0-.3-1.478,3.85,3.85,0,0,0-2.038-2.03A3.715,3.715,0,0,0,744.593.68Z" transform="translate(-197.834 88.685)" fill="#1b2b44"/>
    <path id="Path_1221" data-name="Path 1221" d="M827.516,4.643a2.689,2.689,0,0,1,1.783.826,2.655,2.655,0,0,1,.533.832,2.617,2.617,0,0,1,.194,1,2.536,2.536,0,0,1-.212,1.031,2.769,2.769,0,0,1-.568.844,2.544,2.544,0,0,1-.842.568,2.635,2.635,0,0,1-1.037.205h-3.054a.325.325,0,0,1-.223-.094.3.3,0,0,1-.1-.223.31.31,0,0,1,.1-.234.325.325,0,0,1,.223-.094h3.052a1.906,1.906,0,0,0,.773-.158,2.106,2.106,0,0,0,.639-.428,1.964,1.964,0,0,0,.433-.639,2.009,2.009,0,0,0-.433-2.2,2.1,2.1,0,0,0-.639-.427,1.906,1.906,0,0,0-.773-.158.387.387,0,0,1-.065,0,.229.229,0,0,1-.064-.018l-.727-.082a.032.032,0,0,0-.023-.011,1.928,1.928,0,0,1-.773-.158,2.131,2.131,0,0,1-.655-.446,1.921,1.921,0,0,1-.457-.662,2.006,2.006,0,0,1-.153-.78,1.923,1.923,0,0,1,.164-.79,2.181,2.181,0,0,1,.439-.651,1.978,1.978,0,0,1,.651-.439,2.016,2.016,0,0,1,.8-.158h2.32a.318.318,0,0,1,.234.094.305.305,0,0,1,.094.223.32.32,0,0,1-.328.328H826.5a1.354,1.354,0,0,0-.538.111,1.394,1.394,0,0,0-.742.739,1.353,1.353,0,0,0-.111.538,1.31,1.31,0,0,0,.111.533,1.386,1.386,0,0,0,.305.44,1.49,1.49,0,0,0,.446.3,1.359,1.359,0,0,0,.539.111.08.08,0,0,1,.036.006.085.085,0,0,0,.035.006l.891.106a.046.046,0,0,1,.023.006A.046.046,0,0,0,827.516,4.643Z" transform="translate(-272.358 87.708)" fill="#1b2b44"/>
    <path id="Path_61" data-name="Path 61" d="M335.4,3.058h.642a1.045,1.045,0,0,0,.573-.14.43.43,0,0,0,.224-.376.531.531,0,0,0-.167-.442,1.054,1.054,0,0,0-.6-.134h-.665Zm0,.6V5.147h-.71V1.372h1.325a1.838,1.838,0,0,1,1.119.3,1.018,1.018,0,0,1,.412.865.853.853,0,0,1-.534.776.818.818,0,0,1,.4.385,1.424,1.424,0,0,1,.116.612,4.508,4.508,0,0,0,.015.516.806.806,0,0,0,.066.254V5.15h-.731a3.329,3.329,0,0,1-.06-.862.657.657,0,0,0-.158-.489.731.731,0,0,0-.516-.149Zm3.444-.34a2.775,2.775,0,0,0-.361-1.373,2.686,2.686,0,0,0-1-1.015,2.731,2.731,0,0,0-1.388-.382A2.793,2.793,0,0,0,334.7.91a2.662,2.662,0,0,0-1.009,1.009,2.76,2.76,0,0,0-.367,1.4,2.767,2.767,0,0,0,.364,1.4A2.686,2.686,0,0,0,334.7,5.726a2.787,2.787,0,0,0,2.8,0,2.665,2.665,0,0,0,.988-1.027,2.793,2.793,0,0,0,.358-1.385m-6.109,0a3.283,3.283,0,0,1,.442-1.668A3.2,3.2,0,0,1,334.389.432a3.435,3.435,0,0,1,3.369,0,3.223,3.223,0,0,1,1.221,1.215,3.309,3.309,0,0,1,.439,1.668A3.283,3.283,0,0,1,338.97,5a3.238,3.238,0,0,1-1.221,1.212,3.405,3.405,0,0,1-3.36,0,3.3,3.3,0,0,1-1.659-2.889" transform="translate(225.607 86.009)" fill="#142033"/>
  </g>
</svg>
