<svg xmlns="http://www.w3.org/2000/svg" xmlns:xlink="http://www.w3.org/1999/xlink" width="834" height="454" viewBox="0 0 834 454">
  <defs>
    <linearGradient id="linear-gradient" x1="0.5" x2="0.5" y2="1" gradientUnits="objectBoundingBox">
      <stop offset="0" stop-color="#233a54"/>
      <stop offset="1" stop-color="#060d19"/>
    </linearGradient>
    <filter id="Path_194" x="0" y="0" width="834" height="454" filterUnits="userSpaceOnUse">
      <feOffset input="SourceAlpha"/>
      <feGaussianBlur stdDeviation="1.5" result="blur"/>
      <feFlood/>
      <feComposite operator="in" in2="blur"/>
    </filter>
    <filter id="Path_194-2" x="0" y="0" width="834" height="454" filterUnits="userSpaceOnUse">
      <feOffset dy="1" input="SourceAlpha"/>
      <feGaussianBlur stdDeviation="0.5" result="blur-2"/>
      <feFlood flood-color="#fff" flood-opacity="0.141" result="color"/>
      <feComposite operator="out" in="SourceGraphic" in2="blur-2"/>
      <feComposite operator="in" in="color"/>
      <feComposite operator="in" in2="SourceGraphic"/>
    </filter>
  </defs>
  <g data-type="innerShadowGroup">
    <g transform="matrix(1, 0, 0, 1, 0, 0)" filter="url(#Path_194)">
      <g id="Path_194-3" data-name="Path 194" transform="translate(4.5 3.5)" fill="url(#linear-gradient)">
        <path d="M 813 445.75 L 12 445.75 C 8.861499786376953 445.75 5.910799980163574 444.5278015136719 3.691499948501587 442.3085021972656 C 1.472200036048889 440.0892944335938 0.25 437.1386108398438 0.25 434 L 0.25 13 C 0.25 9.861499786376953 1.472200036048889 6.910799980163574 3.691499948501587 4.691500186920166 C 5.910799980163574 2.4721999168396 8.861499786376953 1.25 12 1.25 L 303.604736328125 1.25 L 338.8215026855469 37.17499923706055 L 338.8949890136719 37.25 L 339 37.25 L 813 37.25 C 816.1386108398438 37.25 819.0892944335938 38.47219848632812 821.3084716796875 40.69150161743164 C 823.5277709960938 42.91080093383789 824.75 45.86149978637695 824.75 49 L 824.75 434 C 824.75 437.1386108398438 823.5277709960938 440.0892944335938 821.3084716796875 442.3085021972656 C 819.0892944335938 444.5278015136719 816.1386108398438 445.75 813 445.75 Z" stroke="none"/>
        <path d="M 12 1.5 C 8.92822265625 1.5 6.040283203125 2.696197509765625 3.86822509765625 4.8682861328125 C 1.69622802734375 7.040313720703125 0.5 9.928192138671875 0.5 13 L 0.5 434 C 0.5 437.0718078613281 1.69622802734375 439.9596862792969 3.86822509765625 442.1317138671875 C 6.040283203125 444.3038024902344 8.92822265625 445.5 12 445.5 L 813 445.5 C 816.07177734375 445.5 818.959716796875 444.3038024902344 821.1317138671875 442.1317138671875 C 823.3037719726562 439.9596862792969 824.5 437.0718078613281 824.5 434 L 824.5 49 C 824.5 45.92819213867188 823.3037719726562 43.04031372070312 821.1317138671875 40.8682861328125 C 818.959716796875 38.69619750976562 816.07177734375 37.5 813 37.5 L 338.7900085449219 37.5 L 338.6429138183594 37.35000610351562 L 303.4996337890625 1.5 L 12 1.5 M 12 1 L 303.709716796875 1 L 339 37 L 813 37 C 819.6273803710938 37 825 42.37258911132812 825 49 L 825 434 C 825 440.6274108886719 819.6273803710938 446 813 446 L 12 446 C 5.37249755859375 446 0 440.6274108886719 0 434 L 0 13 C 0 6.372589111328125 5.37249755859375 1 12 1 Z" stroke="none" fill="#000"/>
      </g>
    </g>
    <g id="Path_194-4" data-name="Path 194" transform="translate(4.5 3.5)" fill="url(#linear-gradient)">
      <path d="M 813 445.75 L 12 445.75 C 8.861499786376953 445.75 5.910799980163574 444.5278015136719 3.691499948501587 442.3085021972656 C 1.472200036048889 440.0892944335938 0.25 437.1386108398438 0.25 434 L 0.25 13 C 0.25 9.861499786376953 1.472200036048889 6.910799980163574 3.691499948501587 4.691500186920166 C 5.910799980163574 2.4721999168396 8.861499786376953 1.25 12 1.25 L 303.604736328125 1.25 L 338.8215026855469 37.17499923706055 L 338.8949890136719 37.25 L 339 37.25 L 813 37.25 C 816.1386108398438 37.25 819.0892944335938 38.47219848632812 821.3084716796875 40.69150161743164 C 823.5277709960938 42.91080093383789 824.75 45.86149978637695 824.75 49 L 824.75 434 C 824.75 437.1386108398438 823.5277709960938 440.0892944335938 821.3084716796875 442.3085021972656 C 819.0892944335938 444.5278015136719 816.1386108398438 445.75 813 445.75 Z" stroke="none"/>
      <path d="M 12 1.5 C 8.92822265625 1.5 6.040283203125 2.696197509765625 3.86822509765625 4.8682861328125 C 1.69622802734375 7.040313720703125 0.5 9.928192138671875 0.5 13 L 0.5 434 C 0.5 437.0718078613281 1.69622802734375 439.9596862792969 3.86822509765625 442.1317138671875 C 6.040283203125 444.3038024902344 8.92822265625 445.5 12 445.5 L 813 445.5 C 816.07177734375 445.5 818.959716796875 444.3038024902344 821.1317138671875 442.1317138671875 C 823.3037719726562 439.9596862792969 824.5 437.0718078613281 824.5 434 L 824.5 49 C 824.5 45.92819213867188 823.3037719726562 43.04031372070312 821.1317138671875 40.8682861328125 C 818.959716796875 38.69619750976562 816.07177734375 37.5 813 37.5 L 338.7900085449219 37.5 L 338.6429138183594 37.35000610351562 L 303.4996337890625 1.5 L 12 1.5 M 12 1 L 303.709716796875 1 L 339 37 L 813 37 C 819.6273803710938 37 825 42.37258911132812 825 49 L 825 434 C 825 440.6274108886719 819.6273803710938 446 813 446 L 12 446 C 5.37249755859375 446 0 440.6274108886719 0 434 L 0 13 C 0 6.372589111328125 5.37249755859375 1 12 1 Z" stroke="none"/>
    </g>
    <g transform="matrix(1, 0, 0, 1, 0, 0)" filter="url(#Path_194-2)">
      <g id="Path_194-5" data-name="Path 194" transform="translate(4.5 3.5)" fill="#fff">
        <path d="M 813 445.75 L 12 445.75 C 8.861499786376953 445.75 5.910799980163574 444.5278015136719 3.691499948501587 442.3085021972656 C 1.472200036048889 440.0892944335938 0.25 437.1386108398438 0.25 434 L 0.25 13 C 0.25 9.861499786376953 1.472200036048889 6.910799980163574 3.691499948501587 4.691500186920166 C 5.910799980163574 2.4721999168396 8.861499786376953 1.25 12 1.25 L 303.604736328125 1.25 L 338.8215026855469 37.17499923706055 L 338.8949890136719 37.25 L 339 37.25 L 813 37.25 C 816.1386108398438 37.25 819.0892944335938 38.47219848632812 821.3084716796875 40.69150161743164 C 823.5277709960938 42.91080093383789 824.75 45.86149978637695 824.75 49 L 824.75 434 C 824.75 437.1386108398438 823.5277709960938 440.0892944335938 821.3084716796875 442.3085021972656 C 819.0892944335938 444.5278015136719 816.1386108398438 445.75 813 445.75 Z" stroke="none"/>
        <path d="M 12 1.5 C 8.92822265625 1.5 6.040283203125 2.696197509765625 3.86822509765625 4.8682861328125 C 1.69622802734375 7.040313720703125 0.5 9.928192138671875 0.5 13 L 0.5 434 C 0.5 437.0718078613281 1.69622802734375 439.9596862792969 3.86822509765625 442.1317138671875 C 6.040283203125 444.3038024902344 8.92822265625 445.5 12 445.5 L 813 445.5 C 816.07177734375 445.5 818.959716796875 444.3038024902344 821.1317138671875 442.1317138671875 C 823.3037719726562 439.9596862792969 824.5 437.0718078613281 824.5 434 L 824.5 49 C 824.5 45.92819213867188 823.3037719726562 43.04031372070312 821.1317138671875 40.8682861328125 C 818.959716796875 38.69619750976562 816.07177734375 37.5 813 37.5 L 338.7900085449219 37.5 L 338.6429138183594 37.35000610351562 L 303.4996337890625 1.5 L 12 1.5 M 12 1 L 303.709716796875 1 L 339 37 L 813 37 C 819.6273803710938 37 825 42.37258911132812 825 49 L 825 434 C 825 440.6274108886719 819.6273803710938 446 813 446 L 12 446 C 5.37249755859375 446 0 440.6274108886719 0 434 L 0 13 C 0 6.372589111328125 5.37249755859375 1 12 1 Z" stroke="none"/>
      </g>
    </g>
    <g id="Path_194-6" data-name="Path 194" transform="translate(4.5 3.5)" fill="none">
      <path d="M 813 445.75 L 12 445.75 C 8.861499786376953 445.75 5.910799980163574 444.5278015136719 3.691499948501587 442.3085021972656 C 1.472200036048889 440.0892944335938 0.25 437.1386108398438 0.25 434 L 0.25 13 C 0.25 9.861499786376953 1.472200036048889 6.910799980163574 3.691499948501587 4.691500186920166 C 5.910799980163574 2.4721999168396 8.861499786376953 1.25 12 1.25 L 303.604736328125 1.25 L 338.8215026855469 37.17499923706055 L 338.8949890136719 37.25 L 339 37.25 L 813 37.25 C 816.1386108398438 37.25 819.0892944335938 38.47219848632812 821.3084716796875 40.69150161743164 C 823.5277709960938 42.91080093383789 824.75 45.86149978637695 824.75 49 L 824.75 434 C 824.75 437.1386108398438 823.5277709960938 440.0892944335938 821.3084716796875 442.3085021972656 C 819.0892944335938 444.5278015136719 816.1386108398438 445.75 813 445.75 Z" stroke="none"/>
      <path d="M 12 1.5 C 8.92822265625 1.5 6.040283203125 2.696197509765625 3.86822509765625 4.8682861328125 C 1.69622802734375 7.040313720703125 0.5 9.928192138671875 0.5 13 L 0.5 434 C 0.5 437.0718078613281 1.69622802734375 439.9596862792969 3.86822509765625 442.1317138671875 C 6.040283203125 444.3038024902344 8.92822265625 445.5 12 445.5 L 813 445.5 C 816.07177734375 445.5 818.959716796875 444.3038024902344 821.1317138671875 442.1317138671875 C 823.3037719726562 439.9596862792969 824.5 437.0718078613281 824.5 434 L 824.5 49 C 824.5 45.92819213867188 823.3037719726562 43.04031372070312 821.1317138671875 40.8682861328125 C 818.959716796875 38.69619750976562 816.07177734375 37.5 813 37.5 L 338.7900085449219 37.5 L 338.6429138183594 37.35000610351562 L 303.4996337890625 1.5 L 12 1.5 M 12 1 L 303.709716796875 1 L 339 37 L 813 37 C 819.6273803710938 37 825 42.37258911132812 825 49 L 825 434 C 825 440.6274108886719 819.6273803710938 446 813 446 L 12 446 C 5.37249755859375 446 0 440.6274108886719 0 434 L 0 13 C 0 6.372589111328125 5.37249755859375 1 12 1 Z" stroke="none" fill="#000"/>
    </g>
  </g>
</svg>
