<svg xmlns="http://www.w3.org/2000/svg" xmlns:xlink="http://www.w3.org/1999/xlink" width="602" height="473" viewBox="0 0 602 473">
  <defs>
    <linearGradient id="linear-gradient" y1="0.362" x2="1" y2="0.362" gradientUnits="objectBoundingBox">
      <stop offset="0" stop-color="#233a54"/>
      <stop offset="1" stop-color="#060d19"/>
    </linearGradient>
    <filter id="Path_2255" x="0" y="0" width="602" height="473" filterUnits="userSpaceOnUse">
      <feOffset input="SourceAlpha"/>
      <feGaussianBlur stdDeviation="1" result="blur"/>
      <feFlood/>
      <feComposite operator="in" in2="blur"/>
    </filter>
    <filter id="Path_2255-2" x="0" y="0" width="602" height="473" filterUnits="userSpaceOnUse">
      <feOffset dy="0.5" input="SourceAlpha"/>
      <feGaussianBlur stdDeviation="0.5" result="blur-2"/>
      <feFlood flood-color="#fff" flood-opacity="0.161" result="color"/>
      <feComposite operator="out" in="SourceGraphic" in2="blur-2"/>
      <feComposite operator="in" in="color"/>
      <feComposite operator="in" in2="SourceGraphic"/>
    </filter>
    <filter id="Path_2254" x="0" y="0" width="602" height="473" filterUnits="userSpaceOnUse">
      <feOffset input="SourceAlpha"/>
      <feGaussianBlur stdDeviation="1" result="blur-3"/>
      <feFlood/>
      <feComposite operator="in" in2="blur-3"/>
    </filter>
    <filter id="Path_2254-2" x="0" y="0" width="602" height="473" filterUnits="userSpaceOnUse">
      <feOffset dy="0.5" input="SourceAlpha"/>
      <feGaussianBlur stdDeviation="0.5" result="blur-4"/>
      <feFlood flood-color="#fff" flood-opacity="0.161" result="color-2"/>
      <feComposite operator="out" in="SourceGraphic" in2="blur-4"/>
      <feComposite operator="in" in="color-2"/>
      <feComposite operator="in" in2="SourceGraphic"/>
    </filter>
  </defs>
  <g id="Group_2" data-name="Group 2" transform="translate(-999 -304)">
    <g data-type="innerShadowGroup">
      <g transform="matrix(1, 0, 0, 1, 999, 304)" filter="url(#Path_2255)">
        <g id="Path_2255-3" data-name="Path 2255" transform="translate(304 6)" fill="url(#linear-gradient)">
          <path d="M 283 463.75 L -289 463.75 C -292.1385498046875 463.75 -295.0892333984375 462.5277709960938 -297.3084716796875 460.3084716796875 C -299.5277709960938 458.0892333984375 -300.75 455.1385498046875 -300.75 452 L -300.75 27 C -300.75 23.32723045349121 -299.3197631835938 19.87430763244629 -296.7226867675781 17.27730751037598 C -294.1257019042969 14.68023109436035 -290.6727600097656 13.25 -287 13.25 L 39.97700119018555 13.25 L 40.07730865478516 13.25 L 40.1497688293457 13.18069267272949 L 56.80798721313477 -2.75 L 181 -2.75 C 184.1385345458984 -2.75 187.0892333984375 -1.527769207954407 189.3084564208984 0.6915384531021118 C 191.5277709960938 2.91076922416687 192.75 5.861461639404297 192.75 9 L 192.75 13.31546115875244 L 192.75 13.56546115875244 L 193 13.56546115875244 L 294.75 13.5721378326416 L 294.75 452 C 294.75 455.1385498046875 293.5277709960938 458.0892333984375 291.3084716796875 460.3084716796875 C 289.0892333984375 462.5277709960938 286.1385498046875 463.75 283 463.75 Z" stroke="none"/>
          <path d="M 56.90828323364258 -2.5 L 40.17761611938477 13.5 L -287 13.5 C -290.6059875488281 13.5 -293.9961547851562 14.90423583984375 -296.5459289550781 17.45407104492188 C -299.0957641601562 20.00384521484375 -300.5 23.39401245117188 -300.5 27 L -300.5 452 C -300.5 455.07177734375 -299.3037719726562 457.9596252441406 -297.1316833496094 460.1316833496094 C -294.9596252441406 462.3037719726562 -292.07177734375 463.5 -289 463.5 L 283 463.5 C 286.07177734375 463.5 288.9596252441406 462.3037719726562 291.1316833496094 460.1316833496094 C 293.3037719726562 457.9596252441406 294.5 455.07177734375 294.5 452 L 294.5 13.82211303710938 L 192.5 13.81539916992188 L 192.5 9 C 192.5 5.92822265625 191.3037719726562 3.040374755859375 189.1316986083984 0.868316650390625 C 186.9596099853516 -1.30377197265625 184.0717620849609 -2.5 181 -2.5 L 56.90828323364258 -2.5 M 56.70769119262695 -3 L 181 -3 C 187.6273803710938 -3 193 2.37261962890625 193 9 L 193 13.31539916992188 L 295 13.3221435546875 L 295 452 C 295 458.6273803710938 289.6273803710938 464 283 464 L -289 464 C -295.6273803710938 464 -301 458.6273803710938 -301 452 L -301 27 C -301 19.26800537109375 -294.7319946289062 13 -287 13 L 39.97700119018555 13 L 56.70769119262695 -3 Z" stroke="none" fill="#000"/>
        </g>
      </g>
      <g id="Path_2255-4" data-name="Path 2255" transform="translate(1303 310)" fill="url(#linear-gradient)">
        <path d="M 283 463.75 L -289 463.75 C -292.1385498046875 463.75 -295.0892333984375 462.5277709960938 -297.3084716796875 460.3084716796875 C -299.5277709960938 458.0892333984375 -300.75 455.1385498046875 -300.75 452 L -300.75 27 C -300.75 23.32723045349121 -299.3197631835938 19.87430763244629 -296.7226867675781 17.27730751037598 C -294.1257019042969 14.68023109436035 -290.6727600097656 13.25 -287 13.25 L 39.97700119018555 13.25 L 40.07730865478516 13.25 L 40.1497688293457 13.18069267272949 L 56.80798721313477 -2.75 L 181 -2.75 C 184.1385345458984 -2.75 187.0892333984375 -1.527769207954407 189.3084564208984 0.6915384531021118 C 191.5277709960938 2.91076922416687 192.75 5.861461639404297 192.75 9 L 192.75 13.31546115875244 L 192.75 13.56546115875244 L 193 13.56546115875244 L 294.75 13.5721378326416 L 294.75 452 C 294.75 455.1385498046875 293.5277709960938 458.0892333984375 291.3084716796875 460.3084716796875 C 289.0892333984375 462.5277709960938 286.1385498046875 463.75 283 463.75 Z" stroke="none"/>
        <path d="M 56.90828323364258 -2.5 L 40.17761611938477 13.5 L -287 13.5 C -290.6059875488281 13.5 -293.9961547851562 14.90423583984375 -296.5459289550781 17.45407104492188 C -299.0957641601562 20.00384521484375 -300.5 23.39401245117188 -300.5 27 L -300.5 452 C -300.5 455.07177734375 -299.3037719726562 457.9596252441406 -297.1316833496094 460.1316833496094 C -294.9596252441406 462.3037719726562 -292.07177734375 463.5 -289 463.5 L 283 463.5 C 286.07177734375 463.5 288.9596252441406 462.3037719726562 291.1316833496094 460.1316833496094 C 293.3037719726562 457.9596252441406 294.5 455.07177734375 294.5 452 L 294.5 13.82211303710938 L 192.5 13.81539916992188 L 192.5 9 C 192.5 5.92822265625 191.3037719726562 3.040374755859375 189.1316986083984 0.868316650390625 C 186.9596099853516 -1.30377197265625 184.0717620849609 -2.5 181 -2.5 L 56.90828323364258 -2.5 M 56.70769119262695 -3 L 181 -3 C 187.6273803710938 -3 193 2.37261962890625 193 9 L 193 13.31539916992188 L 295 13.3221435546875 L 295 452 C 295 458.6273803710938 289.6273803710938 464 283 464 L -289 464 C -295.6273803710938 464 -301 458.6273803710938 -301 452 L -301 27 C -301 19.26800537109375 -294.7319946289062 13 -287 13 L 39.97700119018555 13 L 56.70769119262695 -3 Z" stroke="none"/>
      </g>
      <g transform="matrix(1, 0, 0, 1, 999, 304)" filter="url(#Path_2255-2)">
        <g id="Path_2255-5" data-name="Path 2255" transform="translate(304 6)" fill="#fff">
          <path d="M 283 463.75 L -289 463.75 C -292.1385498046875 463.75 -295.0892333984375 462.5277709960938 -297.3084716796875 460.3084716796875 C -299.5277709960938 458.0892333984375 -300.75 455.1385498046875 -300.75 452 L -300.75 27 C -300.75 23.32723045349121 -299.3197631835938 19.87430763244629 -296.7226867675781 17.27730751037598 C -294.1257019042969 14.68023109436035 -290.6727600097656 13.25 -287 13.25 L 39.97700119018555 13.25 L 40.07730865478516 13.25 L 40.1497688293457 13.18069267272949 L 56.80798721313477 -2.75 L 181 -2.75 C 184.1385345458984 -2.75 187.0892333984375 -1.527769207954407 189.3084564208984 0.6915384531021118 C 191.5277709960938 2.91076922416687 192.75 5.861461639404297 192.75 9 L 192.75 13.31546115875244 L 192.75 13.56546115875244 L 193 13.56546115875244 L 294.75 13.5721378326416 L 294.75 452 C 294.75 455.1385498046875 293.5277709960938 458.0892333984375 291.3084716796875 460.3084716796875 C 289.0892333984375 462.5277709960938 286.1385498046875 463.75 283 463.75 Z" stroke="none"/>
          <path d="M 56.90828323364258 -2.5 L 40.17761611938477 13.5 L -287 13.5 C -290.6059875488281 13.5 -293.9961547851562 14.90423583984375 -296.5459289550781 17.45407104492188 C -299.0957641601562 20.00384521484375 -300.5 23.39401245117188 -300.5 27 L -300.5 452 C -300.5 455.07177734375 -299.3037719726562 457.9596252441406 -297.1316833496094 460.1316833496094 C -294.9596252441406 462.3037719726562 -292.07177734375 463.5 -289 463.5 L 283 463.5 C 286.07177734375 463.5 288.9596252441406 462.3037719726562 291.1316833496094 460.1316833496094 C 293.3037719726562 457.9596252441406 294.5 455.07177734375 294.5 452 L 294.5 13.82211303710938 L 192.5 13.81539916992188 L 192.5 9 C 192.5 5.92822265625 191.3037719726562 3.040374755859375 189.1316986083984 0.868316650390625 C 186.9596099853516 -1.30377197265625 184.0717620849609 -2.5 181 -2.5 L 56.90828323364258 -2.5 M 56.70769119262695 -3 L 181 -3 C 187.6273803710938 -3 193 2.37261962890625 193 9 L 193 13.31539916992188 L 295 13.3221435546875 L 295 452 C 295 458.6273803710938 289.6273803710938 464 283 464 L -289 464 C -295.6273803710938 464 -301 458.6273803710938 -301 452 L -301 27 C -301 19.26800537109375 -294.7319946289062 13 -287 13 L 39.97700119018555 13 L 56.70769119262695 -3 Z" stroke="none"/>
        </g>
      </g>
      <g id="Path_2255-6" data-name="Path 2255" transform="translate(1303 310)" fill="none">
        <path d="M 283 463.75 L -289 463.75 C -292.1385498046875 463.75 -295.0892333984375 462.5277709960938 -297.3084716796875 460.3084716796875 C -299.5277709960938 458.0892333984375 -300.75 455.1385498046875 -300.75 452 L -300.75 27 C -300.75 23.32723045349121 -299.3197631835938 19.87430763244629 -296.7226867675781 17.27730751037598 C -294.1257019042969 14.68023109436035 -290.6727600097656 13.25 -287 13.25 L 39.97700119018555 13.25 L 40.07730865478516 13.25 L 40.1497688293457 13.18069267272949 L 56.80798721313477 -2.75 L 181 -2.75 C 184.1385345458984 -2.75 187.0892333984375 -1.527769207954407 189.3084564208984 0.6915384531021118 C 191.5277709960938 2.91076922416687 192.75 5.861461639404297 192.75 9 L 192.75 13.31546115875244 L 192.75 13.56546115875244 L 193 13.56546115875244 L 294.75 13.5721378326416 L 294.75 452 C 294.75 455.1385498046875 293.5277709960938 458.0892333984375 291.3084716796875 460.3084716796875 C 289.0892333984375 462.5277709960938 286.1385498046875 463.75 283 463.75 Z" stroke="none"/>
        <path d="M 56.90828323364258 -2.5 L 40.17761611938477 13.5 L -287 13.5 C -290.6059875488281 13.5 -293.9961547851562 14.90423583984375 -296.5459289550781 17.45407104492188 C -299.0957641601562 20.00384521484375 -300.5 23.39401245117188 -300.5 27 L -300.5 452 C -300.5 455.07177734375 -299.3037719726562 457.9596252441406 -297.1316833496094 460.1316833496094 C -294.9596252441406 462.3037719726562 -292.07177734375 463.5 -289 463.5 L 283 463.5 C 286.07177734375 463.5 288.9596252441406 462.3037719726562 291.1316833496094 460.1316833496094 C 293.3037719726562 457.9596252441406 294.5 455.07177734375 294.5 452 L 294.5 13.82211303710938 L 192.5 13.81539916992188 L 192.5 9 C 192.5 5.92822265625 191.3037719726562 3.040374755859375 189.1316986083984 0.868316650390625 C 186.9596099853516 -1.30377197265625 184.0717620849609 -2.5 181 -2.5 L 56.90828323364258 -2.5 M 56.70769119262695 -3 L 181 -3 C 187.6273803710938 -3 193 2.37261962890625 193 9 L 193 13.31539916992188 L 295 13.3221435546875 L 295 452 C 295 458.6273803710938 289.6273803710938 464 283 464 L -289 464 C -295.6273803710938 464 -301 458.6273803710938 -301 452 L -301 27 C -301 19.26800537109375 -294.7319946289062 13 -287 13 L 39.97700119018555 13 L 56.70769119262695 -3 Z" stroke="none" fill="#000"/>
      </g>
    </g>
    <g id="Group_1" data-name="Group 1">
      <g data-type="innerShadowGroup">
        <g transform="matrix(1, 0, 0, 1, 999, 304)" filter="url(#Path_2254)">
          <g id="Path_2254-3" data-name="Path 2254" transform="translate(304 6)" fill="url(#linear-gradient)">
            <path d="M 283 463.5 L -289 463.5 C -292.07177734375 463.5 -294.9596252441406 462.3037719726562 -297.1316833496094 460.1316833496094 C -299.3037719726562 457.9596252441406 -300.5 455.07177734375 -300.5 452 L -300.5 27 C -300.5 23.39399909973145 -299.0957641601562 20.00384521484375 -296.5459289550781 17.45407676696777 C -293.9961547851562 14.90423107147217 -290.6059875488281 13.5 -287 13.5 L 202.9770050048828 13.5 L 203.1776123046875 13.5 L 203.3225402832031 13.36138439178467 L 219.9082794189453 -2.5 L 283 -2.5 C 286.07177734375 -2.5 288.9596252441406 -1.30376923084259 291.1316833496094 0.8683077096939087 C 293.3037719726562 3.040384531021118 294.5 5.928230762481689 294.5 9 L 294.5 452 C 294.5 455.07177734375 293.3037719726562 457.9596252441406 291.1316833496094 460.1316833496094 C 288.9596252441406 462.3037719726562 286.07177734375 463.5 283 463.5 Z" stroke="none"/>
            <path d="M 220.1088714599609 -2 L 203.3782348632812 14 L -287 14 C -290.4724731445312 14 -293.7369995117188 15.35223388671875 -296.1923828125 17.8076171875 C -298.6477661132812 20.26300048828125 -300 23.52752685546875 -300 27 L -300 452 C -300 454.9381408691406 -298.8557739257812 457.7005310058594 -296.7781677246094 459.7781677246094 C -294.7005310058594 461.8557739257812 -291.9381408691406 463 -289 463 L 283 463 C 285.9381408691406 463 288.7005310058594 461.8557739257812 290.7781677246094 459.7781677246094 C 292.8557739257812 457.7005310058594 294 454.9381408691406 294 452 L 294 9 C 294 6.061859130859375 292.8557739257812 3.299468994140625 290.7781677246094 1.221832275390625 C 288.7005310058594 -0.85577392578125 285.9381408691406 -2 283 -2 L 220.1088714599609 -2 M 219.7076873779297 -3 L 283 -3 C 289.6273803710938 -3 295 2.37261962890625 295 9 L 295 452 C 295 458.6273803710938 289.6273803710938 464 283 464 L -289 464 C -295.6273803710938 464 -301 458.6273803710938 -301 452 L -301 27 C -301 19.26800537109375 -294.7319946289062 13 -287 13 L 202.9770050048828 13 L 219.7076873779297 -3 Z" stroke="none" fill="#000"/>
          </g>
        </g>
        <g id="Path_2254-4" data-name="Path 2254" transform="translate(1303 310)" fill="url(#linear-gradient)">
          <path d="M 283 463.5 L -289 463.5 C -292.07177734375 463.5 -294.9596252441406 462.3037719726562 -297.1316833496094 460.1316833496094 C -299.3037719726562 457.9596252441406 -300.5 455.07177734375 -300.5 452 L -300.5 27 C -300.5 23.39399909973145 -299.0957641601562 20.00384521484375 -296.5459289550781 17.45407676696777 C -293.9961547851562 14.90423107147217 -290.6059875488281 13.5 -287 13.5 L 202.9770050048828 13.5 L 203.1776123046875 13.5 L 203.3225402832031 13.36138439178467 L 219.9082794189453 -2.5 L 283 -2.5 C 286.07177734375 -2.5 288.9596252441406 -1.30376923084259 291.1316833496094 0.8683077096939087 C 293.3037719726562 3.040384531021118 294.5 5.928230762481689 294.5 9 L 294.5 452 C 294.5 455.07177734375 293.3037719726562 457.9596252441406 291.1316833496094 460.1316833496094 C 288.9596252441406 462.3037719726562 286.07177734375 463.5 283 463.5 Z" stroke="none"/>
          <path d="M 220.1088714599609 -2 L 203.3782348632812 14 L -287 14 C -290.4724731445312 14 -293.7369995117188 15.35223388671875 -296.1923828125 17.8076171875 C -298.6477661132812 20.26300048828125 -300 23.52752685546875 -300 27 L -300 452 C -300 454.9381408691406 -298.8557739257812 457.7005310058594 -296.7781677246094 459.7781677246094 C -294.7005310058594 461.8557739257812 -291.9381408691406 463 -289 463 L 283 463 C 285.9381408691406 463 288.7005310058594 461.8557739257812 290.7781677246094 459.7781677246094 C 292.8557739257812 457.7005310058594 294 454.9381408691406 294 452 L 294 9 C 294 6.061859130859375 292.8557739257812 3.299468994140625 290.7781677246094 1.221832275390625 C 288.7005310058594 -0.85577392578125 285.9381408691406 -2 283 -2 L 220.1088714599609 -2 M 219.7076873779297 -3 L 283 -3 C 289.6273803710938 -3 295 2.37261962890625 295 9 L 295 452 C 295 458.6273803710938 289.6273803710938 464 283 464 L -289 464 C -295.6273803710938 464 -301 458.6273803710938 -301 452 L -301 27 C -301 19.26800537109375 -294.7319946289062 13 -287 13 L 202.9770050048828 13 L 219.7076873779297 -3 Z" stroke="none"/>
        </g>
        <g transform="matrix(1, 0, 0, 1, 999, 304)" filter="url(#Path_2254-2)">
          <g id="Path_2254-5" data-name="Path 2254" transform="translate(304 6)" fill="#fff">
            <path d="M 283 463.5 L -289 463.5 C -292.07177734375 463.5 -294.9596252441406 462.3037719726562 -297.1316833496094 460.1316833496094 C -299.3037719726562 457.9596252441406 -300.5 455.07177734375 -300.5 452 L -300.5 27 C -300.5 23.39399909973145 -299.0957641601562 20.00384521484375 -296.5459289550781 17.45407676696777 C -293.9961547851562 14.90423107147217 -290.6059875488281 13.5 -287 13.5 L 202.9770050048828 13.5 L 203.1776123046875 13.5 L 203.3225402832031 13.36138439178467 L 219.9082794189453 -2.5 L 283 -2.5 C 286.07177734375 -2.5 288.9596252441406 -1.30376923084259 291.1316833496094 0.8683077096939087 C 293.3037719726562 3.040384531021118 294.5 5.928230762481689 294.5 9 L 294.5 452 C 294.5 455.07177734375 293.3037719726562 457.9596252441406 291.1316833496094 460.1316833496094 C 288.9596252441406 462.3037719726562 286.07177734375 463.5 283 463.5 Z" stroke="none"/>
            <path d="M 220.1088714599609 -2 L 203.3782348632812 14 L -287 14 C -290.4724731445312 14 -293.7369995117188 15.35223388671875 -296.1923828125 17.8076171875 C -298.6477661132812 20.26300048828125 -300 23.52752685546875 -300 27 L -300 452 C -300 454.9381408691406 -298.8557739257812 457.7005310058594 -296.7781677246094 459.7781677246094 C -294.7005310058594 461.8557739257812 -291.9381408691406 463 -289 463 L 283 463 C 285.9381408691406 463 288.7005310058594 461.8557739257812 290.7781677246094 459.7781677246094 C 292.8557739257812 457.7005310058594 294 454.9381408691406 294 452 L 294 9 C 294 6.061859130859375 292.8557739257812 3.299468994140625 290.7781677246094 1.221832275390625 C 288.7005310058594 -0.85577392578125 285.9381408691406 -2 283 -2 L 220.1088714599609 -2 M 219.7076873779297 -3 L 283 -3 C 289.6273803710938 -3 295 2.37261962890625 295 9 L 295 452 C 295 458.6273803710938 289.6273803710938 464 283 464 L -289 464 C -295.6273803710938 464 -301 458.6273803710938 -301 452 L -301 27 C -301 19.26800537109375 -294.7319946289062 13 -287 13 L 202.9770050048828 13 L 219.7076873779297 -3 Z" stroke="none"/>
          </g>
        </g>
        <g id="Path_2254-6" data-name="Path 2254" transform="translate(1303 310)" fill="none">
          <path d="M 283 463.5 L -289 463.5 C -292.07177734375 463.5 -294.9596252441406 462.3037719726562 -297.1316833496094 460.1316833496094 C -299.3037719726562 457.9596252441406 -300.5 455.07177734375 -300.5 452 L -300.5 27 C -300.5 23.39399909973145 -299.0957641601562 20.00384521484375 -296.5459289550781 17.45407676696777 C -293.9961547851562 14.90423107147217 -290.6059875488281 13.5 -287 13.5 L 202.9770050048828 13.5 L 203.1776123046875 13.5 L 203.3225402832031 13.36138439178467 L 219.9082794189453 -2.5 L 283 -2.5 C 286.07177734375 -2.5 288.9596252441406 -1.30376923084259 291.1316833496094 0.8683077096939087 C 293.3037719726562 3.040384531021118 294.5 5.928230762481689 294.5 9 L 294.5 452 C 294.5 455.07177734375 293.3037719726562 457.9596252441406 291.1316833496094 460.1316833496094 C 288.9596252441406 462.3037719726562 286.07177734375 463.5 283 463.5 Z" stroke="none"/>
          <path d="M 220.1088714599609 -2 L 203.3782348632812 14 L -287 14 C -290.4724731445312 14 -293.7369995117188 15.35223388671875 -296.1923828125 17.8076171875 C -298.6477661132812 20.26300048828125 -300 23.52752685546875 -300 27 L -300 452 C -300 454.9381408691406 -298.8557739257812 457.7005310058594 -296.7781677246094 459.7781677246094 C -294.7005310058594 461.8557739257812 -291.9381408691406 463 -289 463 L 283 463 C 285.9381408691406 463 288.7005310058594 461.8557739257812 290.7781677246094 459.7781677246094 C 292.8557739257812 457.7005310058594 294 454.9381408691406 294 452 L 294 9 C 294 6.061859130859375 292.8557739257812 3.299468994140625 290.7781677246094 1.221832275390625 C 288.7005310058594 -0.85577392578125 285.9381408691406 -2 283 -2 L 220.1088714599609 -2 M 219.7076873779297 -3 L 283 -3 C 289.6273803710938 -3 295 2.37261962890625 295 9 L 295 452 C 295 458.6273803710938 289.6273803710938 464 283 464 L -289 464 C -295.6273803710938 464 -301 458.6273803710938 -301 452 L -301 27 C -301 19.26800537109375 -294.7319946289062 13 -287 13 L 202.9770050048828 13 L 219.7076873779297 -3 Z" stroke="none" fill="#000"/>
        </g>
      </g>
    </g>
  </g>
</svg>
