<svg xmlns="http://www.w3.org/2000/svg" xmlns:xlink="http://www.w3.org/1999/xlink" width="596.5" height="467.5" viewBox="0 0 596.5 467.5">
  <defs>
    <linearGradient id="linear-gradient" x1="0.5" x2="0.5" y2="1" gradientUnits="objectBoundingBox">
      <stop offset="0" stop-color="#565656"/>
      <stop offset="1" stop-color="#1d1d1d"/>
    </linearGradient>
    <linearGradient id="linear-gradient-2" x1="0.5" x2="0.5" y2="1" gradientUnits="objectBoundingBox">
      <stop offset="0" stop-color="#233a54"/>
      <stop offset="1" stop-color="#060d19"/>
    </linearGradient>
  </defs>
  <g id="Group_2" data-name="Group 2" transform="translate(-4153.75 -2747.75)">
    <path id="Path_10" data-name="Path 10" d="M283,463.75H-289a11.668,11.668,0,0,1-8.308-3.442A11.668,11.668,0,0,1-300.75,452V27a13.66,13.66,0,0,1,4.027-9.723A13.66,13.66,0,0,1-287,13.25H40.077l.072-.069L56.808-2.75H181A11.751,11.751,0,0,1,192.75,9v4.566H193l101.75.007V452A11.752,11.752,0,0,1,283,463.75Z" transform="translate(4455 2751)" stroke="#000" stroke-width="1" fill="url(#linear-gradient)"/>
    <path id="Path_11" data-name="Path 11" d="M283,463.5H-289a11.425,11.425,0,0,1-8.132-3.368A11.425,11.425,0,0,1-300.5,452V27a13.41,13.41,0,0,1,3.954-9.546A13.412,13.412,0,0,1-287,13.5H203.178l.145-.139L219.908-2.5H283A11.5,11.5,0,0,1,294.5,9V452A11.5,11.5,0,0,1,283,463.5Z" transform="translate(4455.25 2750.75)" stroke="#000" stroke-width="1" fill="url(#linear-gradient-2)"/>
  </g>
</svg>
