<svg xmlns="http://www.w3.org/2000/svg" xmlns:xlink="http://www.w3.org/1999/xlink" width="597.5" height="468.5" viewBox="0 0 597.5 468.5">
  <defs>
    <linearGradient id="linear-gradient" x1="0.5" x2="0.5" y2="1" gradientUnits="objectBoundingBox">
      <stop offset="0" stop-color="#565656"/>
      <stop offset="1" stop-color="#1d1d1d"/>
    </linearGradient>
    <linearGradient id="linear-gradient-2" x1="0.5" x2="0.5" y2="1" gradientUnits="objectBoundingBox">
      <stop offset="0" stop-color="#233a54"/>
      <stop offset="1" stop-color="#060d19"/>
    </linearGradient>
  </defs>
  <g id="Group_2" data-name="Group 2" transform="translate(-4153.25 -2747.25)">
    <g id="Path_10" data-name="Path 10" transform="translate(4455 2751)" fill="url(#linear-gradient)">
      <path d="M -289.0331115722656 464.2501220703125 C -290.645263671875 464.2501220703125 -292.2174072265625 463.9361877441406 -293.7059631347656 463.3170471191406 C -295.1946411132812 462.6978149414062 -296.52587890625 461.8040466308594 -297.6626586914062 460.6605834960938 C -298.8081970214844 459.521728515625 -299.7041015625 458.1852722167969 -300.3234252929688 456.6902770996094 C -300.9428100585938 455.1952819824219 -301.2545776367188 453.6168212890625 -301.2499694824219 451.9986572265625 L -301.2499694824219 27.00004005432129 C -301.2551879882812 25.11911773681641 -300.8926391601562 23.28288650512695 -300.1723327636719 21.54380989074707 C -299.4520263671875 19.8048095703125 -298.4101867675781 18.24996376037598 -297.0755615234375 16.9225025177002 C -295.7547912597656 15.59457874298096 -294.2059631347656 14.5551176071167 -292.4740295410156 13.83504009246826 C -290.7423400878906 13.11504077911377 -288.9134216308594 12.74996376037598 -287.0380249023438 12.74996376037598 L -286.9985656738281 12.75004005432129 L 39.87623977661133 12.75004005432129 L 56.46242523193359 -3.1113440990448 L 56.60734939575195 -3.249959468841553 L 56.80796432495117 -3.249959468841553 L 181.0000457763672 -3.249959468841553 C 184.2715759277344 -3.249959468841553 187.3475036621094 -1.975882649421692 189.6611938476562 0.3375019729137421 C 191.9748840332031 2.651040315628052 193.2494201660156 5.72704029083252 193.2500457763672 8.998963356018066 L 193.2500457763672 13.06705760955811 L 294.7500305175781 13.07404041290283 L 295.2500305175781 13.07404041290283 L 295.2500305175781 13.57404041290283 L 295.2500305175781 452.0000305175781 C 295.2500305175781 455.2710266113281 293.9761047363281 458.3466491699219 291.6629638671875 460.6603393554688 C 289.3496704101562 462.97412109375 286.2738952636719 464.2489624023438 283.0021057128906 464.2500305175781 L -288.9999694824219 464.2500305175781 L -289.0331115722656 464.2501220703125 Z" stroke="none"/>
      <path d="M -289.0331115722656 463.7500915527344 C -289.0220642089844 463.7500915527344 -289.010986328125 463.7500610351562 -288.9999694824219 463.7500305175781 L 283.001953125 463.7500305175781 C 289.4908752441406 463.7478942871094 294.7500305175781 458.4869689941406 294.7500305175781 452.0000305175781 L 294.7500305175781 13.57404041290283 L 192.7500457763672 13.56704044342041 L 192.7500457763672 8.999040603637695 C 192.7488861083984 2.509886503219604 187.4881134033203 -2.749959468841553 181.0000457763672 -2.749959468841553 L 56.80796432495117 -2.749959468841553 L 40.07696533203125 13.25004005432129 L -286.9999694824219 13.25004005432129 C -287.0126647949219 13.25000476837158 -287.0253295898438 13.24998760223389 -287.0380249023438 13.24998760223389 C -290.6730651855469 13.24998760223389 -294.1588439941406 14.69896411895752 -296.7229614257812 17.27704048156738 C -299.3099670410156 19.85011672973633 -300.7601013183594 23.35127067565918 -300.7499694824219 27.00004005432129 L -300.7499694824219 452.0000305175781 C -300.7588195800781 455.1179504394531 -299.5192565917969 458.1098022460938 -297.3080444335938 460.3080444335938 C -295.1175842285156 462.5115051269531 -292.1392517089844 463.7500915527344 -289.0331115722656 463.7500915527344 M -289.0331115722656 464.7501220703125 C -290.7114868164062 464.7501220703125 -292.3482666015625 464.4232788085938 -293.8980407714844 463.7786560058594 C -295.4478759765625 463.134033203125 -296.833740234375 462.2035827636719 -298.0172729492188 461.0130310058594 L -298.0172424316406 461.0130004882812 C -299.2100219726562 459.8262329101562 -300.1413269042969 458.4363098144531 -300.7853393554688 456.8816528320312 C -301.43017578125 455.3251953125 -301.7547302246094 453.681884765625 -301.7499694824219 451.9971923828125 L -301.7499694824219 27.00004005432129 C -301.7553405761719 25.05404090881348 -301.3800354003906 23.15303993225098 -300.63427734375 21.35250282287598 C -299.8885803222656 19.55204010009766 -298.8098754882812 17.94234848022461 -297.4281921386719 16.56804084777832 L -297.4281616210938 16.56807136535645 C -296.0596008300781 15.19303607940674 -294.4573974609375 14.11820411682129 -292.6659545898438 13.37334823608398 C -290.8731079101562 12.62796306610107 -288.9796447753906 12.24996376037598 -287.0380249023438 12.24996376037598 L -286.9999694824219 12.25004005432129 L 39.67559432983398 12.25004005432129 L 56.40681076049805 -3.749959468841553 L 181.0000457763672 -3.749959468841553 C 184.4051208496094 -3.749959468841553 187.6065826416016 -2.423882722854614 190.0147399902344 -0.01603648997843266 C 192.4228820800781 2.391886472702026 193.7494201660156 5.593425273895264 193.7500457763672 8.998887062072754 L 193.7500457763672 12.5670919418335 L 295.7500305175781 12.57411766052246 L 295.7500305175781 452.0000305175781 C 295.7500305175781 455.4045715332031 294.4241333007812 458.6057434082031 292.0165100097656 461.0138854980469 C 289.60888671875 463.4220275878906 286.4075927734375 464.7489013671875 283.0022583007812 464.7500305175781 L -289.0331115722656 464.7501220703125 Z" stroke="none" fill="#000"/>
    </g>
    <g id="Path_11" data-name="Path 11" transform="translate(4455.25 2750.75)" fill="url(#linear-gradient-2)">
      <path d="M -289.0317077636719 464.0000610351562 C -290.611083984375 464.0000610351562 -292.1513977050781 463.6926879882812 -293.6097106933594 463.0863647460938 C -295.0681457519531 462.47998046875 -296.3724670410156 461.6045837402344 -297.4865417480469 460.4845886230469 C -298.6084594726562 459.3685913085938 -299.48583984375 458.0592041015625 -300.0924682617188 456.5946655273438 C -300.6990051269531 455.130126953125 -301.00439453125 453.583740234375 -301 451.9985961914062 L -301 26.99998092651367 C -301.0051574707031 25.15205764770508 -300.64892578125 23.34813499450684 -299.9412231445312 21.63951873779297 C -299.2335510253906 19.93098068237305 -298.2098388671875 18.40351867675781 -296.8985290527344 17.09944152832031 C -295.6010131835938 15.79475021362305 -294.0792236328125 14.77351951599121 -292.3776245117188 14.0660572052002 C -290.6761474609375 13.3585958480835 -288.8792419433594 12.99990367889404 -287.03662109375 12.99990367889404 L -286.9986267089844 12.99998092651367 L 202.9770812988281 12.99998092651367 L 219.5623779296875 -2.861403942108154 L 219.7073822021484 -3.000019311904907 L 219.9079895019531 -3.000019311904907 L 283 -3.000019311904907 C 286.2052917480469 -3.000019311904907 289.21875 -1.75178861618042 291.4852905273438 0.5147498846054077 C 293.7517700195312 2.781211376190186 295 5.794672966003418 295 8.999980926513672 L 295 451.9999694824219 C 295 455.2052917480469 293.7517700195312 458.21875 291.4852905273438 460.4852905273438 C 289.21875 462.7517395019531 286.2052917480469 463.9999694824219 283 463.9999694824219 L -289 463.9999694824219 L -289.0317077636719 464.0000610351562 Z" stroke="none"/>
      <path d="M -289.03173828125 463.5000305175781 C -289.0213012695312 463.5000305175781 -289.0104370117188 463.5 -289 463.4999694824219 L 283 463.4999694824219 C 289.3512878417969 463.4999694824219 294.5 458.3512878417969 294.5 451.9999694824219 L 294.5 8.999980926513672 C 294.5 2.648749828338623 289.3512878417969 -2.500019311904907 283 -2.500019311904907 L 219.9079895019531 -2.500019311904907 L 203.1779937744141 13.49998092651367 L -287 13.49998092651367 C -287.0122375488281 13.4999475479126 -287.0243835449219 13.4999303817749 -287.03662109375 13.4999303817749 C -290.6057739257812 13.4999303817749 -294.0284118652344 14.92266273498535 -296.5459899902344 17.45398139953613 C -299.0861511230469 19.98013496398926 -300.510009765625 23.4175968170166 -300.5 26.99998092651367 L -300.5 451.9999694824219 C -300.5083923339844 455.0516662597656 -299.2956237792969 457.9798889160156 -297.1320190429688 460.1319885253906 C -294.9872741699219 462.2882690429688 -292.0721435546875 463.5001525878906 -289.03173828125 463.5000305175781 M -289.0317077636719 464.5000610351562 C -290.6773071289062 464.5001220703125 -292.2821655273438 464.1798400878906 -293.8016967773438 463.5480651855469 C -295.3204650878906 462.9165649414062 -296.6788635253906 462.0050964355469 -297.8391418457031 460.8390808105469 C -299.0092163085938 459.6747436523438 -299.9227294921875 458.3110656738281 -300.5543823242188 456.7859802246094 C -301.1864013671875 455.2600708007812 -301.5045471191406 453.6488952636719 -301.5 451.9972229003906 L -301.5 26.99998092651367 C -301.5053100585938 25.08698081970215 -301.1363220214844 23.21821212768555 -300.4031677246094 21.44821166992188 C -299.6700744628906 19.67828750610352 -298.6095581054688 18.09582710266113 -297.2511596679688 16.74490356445312 L -297.2511291503906 16.74493408203125 C -295.90576171875 15.39321804046631 -294.3305969238281 14.33657264709473 -292.5695495605469 13.60436534881592 C -290.8070068359375 12.87151908874512 -288.9454040527344 12.49990367889404 -287.03662109375 12.49990367889404 L -287 12.49998092651367 L 202.7765045166016 12.49998092651367 L 219.5067596435547 -3.500019311904907 L 283 -3.500019311904907 C 286.3388366699219 -3.500019311904907 289.4779052734375 -2.199788570404053 291.8388366699219 0.1611344963312149 C 294.1997680664062 2.52213454246521 295.5 5.661134719848633 295.5 8.999980926513672 L 295.5 451.9999694824219 C 295.5 455.3388977050781 294.1997680664062 458.4779052734375 291.8388366699219 460.8388366699219 C 289.4779052734375 463.1997375488281 286.3389282226562 464.4999694824219 283 464.4999694824219 L -289.0317077636719 464.5000610351562 Z" stroke="none" fill="red"/>
    </g>
  </g>
</svg>
