<svg xmlns="http://www.w3.org/2000/svg" xmlns:xlink="http://www.w3.org/1999/xlink" width="292.5" height="484.5" viewBox="0 0 292.5 484.5">
  <defs>
    <linearGradient id="linear-gradient" y1="0.414" x2="1" y2="0.414" gradientUnits="objectBoundingBox">
      <stop offset="0" stop-color="#233a54"/>
      <stop offset="1" stop-color="#060d19"/>
    </linearGradient>
  </defs>
  <g id="Path_12" data-name="Path 12" transform="translate(-0.25 -0.25)" fill="url(#linear-gradient)">
    <path d="M 281 484.25 L 11.9999885559082 484.25 C 8.992238998413086 484.2467041015625 6.165301322937012 483.0721435546875 4.040363788604736 480.9427795410156 C 1.915488839149475 478.8133239746094 0.7469263672828674 475.9838256835938 0.7499889135360718 472.9755249023438 L 0.7499889135360718 12.02501487731934 C 0.7469263672828674 9.016264915466309 1.915488839149475 6.186765193939209 4.040363788604736 4.057327747344971 C 6.165301322937012 1.927890300750732 8.992300987243652 0.7533277869224548 12.00055122375488 0.7500152587890625 L 119.991096496582 0.7500152587890625 L 136.5040588378906 16.57501602172852 L 136.5795440673828 16.64639091491699 L 136.72412109375 16.78301620483398 L 136.9229888916016 16.78301620483398 L 279 16.78301620483398 C 282.5428161621094 16.78657722473145 285.8724975585938 18.16988945007324 288.3753051757812 20.67814064025879 C 290.8780517578125 23.1863899230957 292.2541809082031 26.51914024353027 292.2500610351562 30.06245231628418 L 292.25 472.9750061035156 C 292.2528076171875 475.9837036132812 291.0841064453125 478.8130798339844 288.9592895507812 480.9424438476562 C 286.8345031738281 483.0718383789062 284.0075988769531 484.2464599609375 280.9994201660156 484.25 L 281 484.25 Z" stroke="none"/>
    <path d="M 281 483.75 L 280.9988098144531 483.75 C 283.8734741210938 483.7466430664062 286.5748596191406 482.6240844726562 288.6053771972656 480.5892639160156 C 290.6358642578125 478.5543823242188 291.752685546875 475.8506469726562 291.75 472.9750061035156 L 291.7500610351562 30.06182861328125 C 291.7539978027344 26.65207862854004 290.4298095703125 23.44501495361328 288.0213623046875 21.03132820129395 C 285.6129150390625 18.61763954162598 282.4087524414062 17.28645324707031 279 17.28301620483398 L 136.5251770019531 17.28301620483398 L 136.1580505371094 16.93601608276367 L 119.7901382446289 1.250015258789062 L 12.00111389160156 1.250015258789062 C 9.126363754272461 1.253202795982361 6.424926280975342 2.375640153884888 4.394301414489746 4.410515308380127 C 2.363738775253296 6.445390224456787 1.247051358222961 9.149265289306641 1.249988913536072 12.02501487731934 L 1.249988913536072 472.9760131835938 C 1.247051358222961 475.8507690429688 2.363738775253296 478.5546264648438 4.394301414489746 480.5895690917969 C 6.424863815307617 482.6244506835938 9.126363754272461 483.7468872070312 11.9999885559082 483.75 L 281 483.75 M 281 484.75 L 11.9999885559082 484.75 C 5.50386381149292 484.7428894042969 0.2433638870716095 479.47119140625 0.2499888986349106 472.9750061035156 L 0.2499888986349106 12.02501487731934 C 0.2433638870716095 5.528890132904053 5.50386381149292 0.2572027444839478 11.9999885559082 0.2500152587890625 L 120.1919860839844 0.2500152587890625 L 136.9229888916016 16.28301620483398 L 279 16.28301620483398 C 286.6024169921875 16.29070281982422 292.7588500976562 22.4605770111084 292.7500610351562 30.06301498413086 L 292.75 472.9750061035156 C 292.7560424804688 479.470947265625 287.4959411621094 484.7423400878906 281 484.75 Z" stroke="none" fill="red"/>
  </g>
</svg>
