<svg xmlns="http://www.w3.org/2000/svg" xmlns:xlink="http://www.w3.org/1999/xlink" width="299" height="491" viewBox="0 0 299 491">
  <defs>
    <linearGradient id="linear-gradient" y1="0.443" x2="1" y2="0.443" gradientUnits="objectBoundingBox">
      <stop offset="0" stop-color="#233a54"/>
      <stop offset="1" stop-color="#060d19"/>
    </linearGradient>
    <filter id="Path_1607" x="0" y="0" width="299" height="491" filterUnits="userSpaceOnUse">
      <feOffset input="SourceAlpha"/>
      <feGaussianBlur stdDeviation="1" result="blur"/>
      <feFlood/>
      <feComposite operator="in" in2="blur"/>
    </filter>
    <filter id="Path_1607-2" x="0" y="0" width="299" height="491" filterUnits="userSpaceOnUse">
      <feOffset dy="0.5" input="SourceAlpha"/>
      <feGaussianBlur stdDeviation="0.5" result="blur-2"/>
      <feFlood flood-color="#fff" flood-opacity="0.161" result="color"/>
      <feComposite operator="out" in="SourceGraphic" in2="blur-2"/>
      <feComposite operator="in" in="color"/>
      <feComposite operator="in" in2="SourceGraphic"/>
    </filter>
  </defs>
  <g data-type="innerShadowGroup">
    <g transform="matrix(1, 0, 0, 1, 0, 0)" filter="url(#Path_1607)">
      <g id="Path_1607-3" data-name="Path 1607" transform="translate(3 3)" fill="url(#linear-gradient)">
        <path d="M 281 484.75 L 12 484.75 C 8.861588478088379 484.75 5.910941123962402 483.5252380371094 3.691705942153931 481.3012390136719 C 1.472294092178345 479.0771789550781 0.25 476.1200561523438 0.25 472.9746398925781 L 0.25 12.02541160583496 C 0.25 8.880000114440918 1.472294092178345 5.922823429107666 3.691705942153931 3.698764801025391 C 5.910941123962402 1.474764704704285 8.861588478088379 0.25 12 0.25 L 120.1919021606445 0.25 L 136.8500061035156 16.21429443359375 L 136.9225311279297 16.28382301330566 L 137.0229949951172 16.28382301330566 L 279 16.28382301330566 C 282.6726379394531 16.28382301330566 286.1255187988281 17.71711730957031 288.7225341796875 20.31958770751953 C 291.3197021484375 22.9222354888916 292.75 26.38264656066895 292.75 30.06341171264648 L 292.75 472.9746398925781 C 292.75 476.1200561523438 291.5277099609375 479.0771789550781 289.3082885742188 481.3012390136719 C 287.0890502929688 483.5252380371094 284.1383972167969 484.75 281 484.75 Z" stroke="none"/>
        <path d="M 12 0.5 C 8.928436279296875 0.5 6.040679931640625 1.698699951171875 3.868621826171875 3.87530517578125 C 1.696319580078125 6.05224609375 0.5 8.946624755859375 0.5 12.02536010742188 L 0.5 472.974609375 C 0.5 476.0533752441406 1.696319580078125 478.94775390625 3.868621826171875 481.1246948242188 C 6.040679931640625 483.3013000488281 8.928436279296875 484.5 12 484.5 L 281 484.5 C 284.0715637207031 484.5 286.9593200683594 483.3013000488281 289.1313171386719 481.1246948242188 C 291.3036193847656 478.94775390625 292.5 476.0533752441406 292.5 472.974609375 L 292.5 30.06344604492188 C 292.5 26.44931030273438 291.0956115722656 23.0516357421875 288.5455627441406 20.49618530273438 C 285.9958190917969 17.94100952148438 282.6058044433594 16.5338134765625 279 16.5338134765625 L 136.8221282958984 16.5338134765625 L 120.0914154052734 0.5 L 12 0.5 M 12 0 L 120.2923126220703 0 L 137.0229949951172 16.0338134765625 L 279 16.0338134765625 C 286.7319946289062 16.0338134765625 293 22.3150634765625 293 30.06344604492188 L 293 472.974609375 C 293 479.6160583496094 287.6273803710938 485 281 485 L 12 485 C 5.37255859375 485 0 479.6160583496094 0 472.974609375 L 0 12.02536010742188 C 0 5.383941650390625 5.37255859375 0 12 0 Z" stroke="none" fill="#1b2b44"/>
      </g>
    </g>
    <g id="Path_1607-4" data-name="Path 1607" transform="translate(3 3)" fill="url(#linear-gradient)">
      <path d="M 281 484.75 L 12 484.75 C 8.861588478088379 484.75 5.910941123962402 483.5252380371094 3.691705942153931 481.3012390136719 C 1.472294092178345 479.0771789550781 0.25 476.1200561523438 0.25 472.9746398925781 L 0.25 12.02541160583496 C 0.25 8.880000114440918 1.472294092178345 5.922823429107666 3.691705942153931 3.698764801025391 C 5.910941123962402 1.474764704704285 8.861588478088379 0.25 12 0.25 L 120.1919021606445 0.25 L 136.8500061035156 16.21429443359375 L 136.9225311279297 16.28382301330566 L 137.0229949951172 16.28382301330566 L 279 16.28382301330566 C 282.6726379394531 16.28382301330566 286.1255187988281 17.71711730957031 288.7225341796875 20.31958770751953 C 291.3197021484375 22.9222354888916 292.75 26.38264656066895 292.75 30.06341171264648 L 292.75 472.9746398925781 C 292.75 476.1200561523438 291.5277099609375 479.0771789550781 289.3082885742188 481.3012390136719 C 287.0890502929688 483.5252380371094 284.1383972167969 484.75 281 484.75 Z" stroke="none"/>
      <path d="M 12 0.5 C 8.928436279296875 0.5 6.040679931640625 1.698699951171875 3.868621826171875 3.87530517578125 C 1.696319580078125 6.05224609375 0.5 8.946624755859375 0.5 12.02536010742188 L 0.5 472.974609375 C 0.5 476.0533752441406 1.696319580078125 478.94775390625 3.868621826171875 481.1246948242188 C 6.040679931640625 483.3013000488281 8.928436279296875 484.5 12 484.5 L 281 484.5 C 284.0715637207031 484.5 286.9593200683594 483.3013000488281 289.1313171386719 481.1246948242188 C 291.3036193847656 478.94775390625 292.5 476.0533752441406 292.5 472.974609375 L 292.5 30.06344604492188 C 292.5 26.44931030273438 291.0956115722656 23.0516357421875 288.5455627441406 20.49618530273438 C 285.9958190917969 17.94100952148438 282.6058044433594 16.5338134765625 279 16.5338134765625 L 136.8221282958984 16.5338134765625 L 120.0914154052734 0.5 L 12 0.5 M 12 0 L 120.2923126220703 0 L 137.0229949951172 16.0338134765625 L 279 16.0338134765625 C 286.7319946289062 16.0338134765625 293 22.3150634765625 293 30.06344604492188 L 293 472.974609375 C 293 479.6160583496094 287.6273803710938 485 281 485 L 12 485 C 5.37255859375 485 0 479.6160583496094 0 472.974609375 L 0 12.02536010742188 C 0 5.383941650390625 5.37255859375 0 12 0 Z" stroke="none"/>
    </g>
    <g transform="matrix(1, 0, 0, 1, 0, 0)" filter="url(#Path_1607-2)">
      <g id="Path_1607-5" data-name="Path 1607" transform="translate(3 3)" fill="#fff">
        <path d="M 281 484.75 L 12 484.75 C 8.861588478088379 484.75 5.910941123962402 483.5252380371094 3.691705942153931 481.3012390136719 C 1.472294092178345 479.0771789550781 0.25 476.1200561523438 0.25 472.9746398925781 L 0.25 12.02541160583496 C 0.25 8.880000114440918 1.472294092178345 5.922823429107666 3.691705942153931 3.698764801025391 C 5.910941123962402 1.474764704704285 8.861588478088379 0.25 12 0.25 L 120.1919021606445 0.25 L 136.8500061035156 16.21429443359375 L 136.9225311279297 16.28382301330566 L 137.0229949951172 16.28382301330566 L 279 16.28382301330566 C 282.6726379394531 16.28382301330566 286.1255187988281 17.71711730957031 288.7225341796875 20.31958770751953 C 291.3197021484375 22.9222354888916 292.75 26.38264656066895 292.75 30.06341171264648 L 292.75 472.9746398925781 C 292.75 476.1200561523438 291.5277099609375 479.0771789550781 289.3082885742188 481.3012390136719 C 287.0890502929688 483.5252380371094 284.1383972167969 484.75 281 484.75 Z" stroke="none"/>
        <path d="M 12 0.5 C 8.928436279296875 0.5 6.040679931640625 1.698699951171875 3.868621826171875 3.87530517578125 C 1.696319580078125 6.05224609375 0.5 8.946624755859375 0.5 12.02536010742188 L 0.5 472.974609375 C 0.5 476.0533752441406 1.696319580078125 478.94775390625 3.868621826171875 481.1246948242188 C 6.040679931640625 483.3013000488281 8.928436279296875 484.5 12 484.5 L 281 484.5 C 284.0715637207031 484.5 286.9593200683594 483.3013000488281 289.1313171386719 481.1246948242188 C 291.3036193847656 478.94775390625 292.5 476.0533752441406 292.5 472.974609375 L 292.5 30.06344604492188 C 292.5 26.44931030273438 291.0956115722656 23.0516357421875 288.5455627441406 20.49618530273438 C 285.9958190917969 17.94100952148438 282.6058044433594 16.5338134765625 279 16.5338134765625 L 136.8221282958984 16.5338134765625 L 120.0914154052734 0.5 L 12 0.5 M 12 0 L 120.2923126220703 0 L 137.0229949951172 16.0338134765625 L 279 16.0338134765625 C 286.7319946289062 16.0338134765625 293 22.3150634765625 293 30.06344604492188 L 293 472.974609375 C 293 479.6160583496094 287.6273803710938 485 281 485 L 12 485 C 5.37255859375 485 0 479.6160583496094 0 472.974609375 L 0 12.02536010742188 C 0 5.383941650390625 5.37255859375 0 12 0 Z" stroke="none"/>
      </g>
    </g>
    <g id="Path_1607-6" data-name="Path 1607" transform="translate(3 3)" fill="none">
      <path d="M 281 484.75 L 12 484.75 C 8.861588478088379 484.75 5.910941123962402 483.5252380371094 3.691705942153931 481.3012390136719 C 1.472294092178345 479.0771789550781 0.25 476.1200561523438 0.25 472.9746398925781 L 0.25 12.02541160583496 C 0.25 8.880000114440918 1.472294092178345 5.922823429107666 3.691705942153931 3.698764801025391 C 5.910941123962402 1.474764704704285 8.861588478088379 0.25 12 0.25 L 120.1919021606445 0.25 L 136.8500061035156 16.21429443359375 L 136.9225311279297 16.28382301330566 L 137.0229949951172 16.28382301330566 L 279 16.28382301330566 C 282.6726379394531 16.28382301330566 286.1255187988281 17.71711730957031 288.7225341796875 20.31958770751953 C 291.3197021484375 22.9222354888916 292.75 26.38264656066895 292.75 30.06341171264648 L 292.75 472.9746398925781 C 292.75 476.1200561523438 291.5277099609375 479.0771789550781 289.3082885742188 481.3012390136719 C 287.0890502929688 483.5252380371094 284.1383972167969 484.75 281 484.75 Z" stroke="none"/>
      <path d="M 12 0.5 C 8.928436279296875 0.5 6.040679931640625 1.698699951171875 3.868621826171875 3.87530517578125 C 1.696319580078125 6.05224609375 0.5 8.946624755859375 0.5 12.02536010742188 L 0.5 472.974609375 C 0.5 476.0533752441406 1.696319580078125 478.94775390625 3.868621826171875 481.1246948242188 C 6.040679931640625 483.3013000488281 8.928436279296875 484.5 12 484.5 L 281 484.5 C 284.0715637207031 484.5 286.9593200683594 483.3013000488281 289.1313171386719 481.1246948242188 C 291.3036193847656 478.94775390625 292.5 476.0533752441406 292.5 472.974609375 L 292.5 30.06344604492188 C 292.5 26.44931030273438 291.0956115722656 23.0516357421875 288.5455627441406 20.49618530273438 C 285.9958190917969 17.94100952148438 282.6058044433594 16.5338134765625 279 16.5338134765625 L 136.8221282958984 16.5338134765625 L 120.0914154052734 0.5 L 12 0.5 M 12 0 L 120.2923126220703 0 L 137.0229949951172 16.0338134765625 L 279 16.0338134765625 C 286.7319946289062 16.0338134765625 293 22.3150634765625 293 30.06344604492188 L 293 472.974609375 C 293 479.6160583496094 287.6273803710938 485 281 485 L 12 485 C 5.37255859375 485 0 479.6160583496094 0 472.974609375 L 0 12.02536010742188 C 0 5.383941650390625 5.37255859375 0 12 0 Z" stroke="none" fill="#1b2b44"/>
    </g>
  </g>
</svg>
