<svg xmlns="http://www.w3.org/2000/svg" width="157.835" height="23.772" viewBox="0 0 157.835 23.772">
  <g id="Group_15715" data-name="Group 15715" transform="translate(-433.523 -625)">
    <path id="Path_1211" data-name="Path 1211" d="M13.321,2.22V8.883a6.663,6.663,0,1,1-13.326,0V2.22h2.38V8.883a4.283,4.283,0,1,0,8.566,0V2.22Z" transform="translate(433.528 633.207)" fill="#fff"/>
    <path id="Path_1212" data-name="Path 1212" d="M111.656,4.049l-4.283,3.292L103.09,4.049,100.71,2.22V5.226l2.38,1.83v0l2.342,1.79,1.941,1.5,1.941-1.5,2.342-1.79v8.492h2.379V2.22Z" transform="translate(349.756 633.207)" fill="#fff"/>
    <path id="Path_1213" data-name="Path 1213" d="M102.044,38.959,100.71,37.94v7.318h2.38V39.77Z" transform="translate(349.756 603.496)" fill="#fff"/>
    <path id="Path_1214" data-name="Path 1214" d="M214.728,11.3a4.249,4.249,0,0,1-4.244,4.246H201.4V2.22h8.4a3.607,3.607,0,0,1,3.6,3.6,3.533,3.533,0,0,1-.57,1.941,4.246,4.246,0,0,1,1.906,3.541ZM203.784,7.036h6.034a1.218,1.218,0,0,0,0-2.436h-6.034Zm6.7,6.112a1.866,1.866,0,1,0,0-3.731h-6.7v3.75h6.7Z" transform="translate(266.004 633.207)" fill="#fff"/>
    <path id="Path_1215" data-name="Path 1215" d="M308.046,9.5a3.2,3.2,0,0,0,1.021-.284,3.619,3.619,0,0,0,1.046-5.826,3.566,3.566,0,0,0-2.532-1.046H299.17V4.719h8.411a1.193,1.193,0,0,1,.856.336,1.255,1.255,0,0,1,.362.875,1.211,1.211,0,0,1-.723,1.105,1.112,1.112,0,0,1-.495.114l-8.411.019v8.5h2.38V9.535h2.379a2.355,2.355,0,0,1,2.019,1.142l.057.114,1.279,2.493,1.218,2.38h2.665l-1.218-2.38Z" transform="translate(184.682 633.107)" fill="#fff"/>
    <path id="Path_1216" data-name="Path 1216" d="M392.355,5.818V7.061h8.563V9.435h-8.563v2.513a1.226,1.226,0,0,0,1.218,1.218H403.3v2.38H393.57a3.59,3.59,0,0,1-3.57-3.6V5.818a3.59,3.59,0,0,1,3.57-3.6H403.3V4.6H393.57A1.226,1.226,0,0,0,392.355,5.818Z" transform="translate(109.131 633.207)" fill="#fff"/>
    <path id="Path_1217" data-name="Path 1217" d="M501.525,13.26v2.38h-6.759a4.147,4.147,0,0,1-1.864-.429,4.219,4.219,0,0,1-1.923-1.951,4.134,4.134,0,0,1-.439-1.866V2.31h2.38v9.313a1.9,1.9,0,0,0,1.618,1.618Z" transform="translate(25.504 633.132)" fill="#fff"/>
    <path id="Path_1218" data-name="Path 1218" d="M581.533,13.26v2.38h-6.758a4.153,4.153,0,0,1-1.866-.429,4.219,4.219,0,0,1-1.923-1.951,4.133,4.133,0,0,1-.437-1.866V2.31h2.379v9.313a1.9,1.9,0,0,0,1.618,1.618Z" transform="translate(-41.046 633.132)" fill="#fff"/>
    <path id="Path_1219" data-name="Path 1219" d="M659.731,15.547h-2.665l-1.218-2.38-2.914-5.711-2.912,5.72-1.215,2.372H646.14l1.218-2.38L652.935,2.22l5.578,10.946Z" transform="translate(-103.92 633.207)" fill="#fff"/>
    <path id="Path_1220" data-name="Path 1220" d="M746.874,13.546a6.561,6.561,0,0,1-2.626-.53,6.866,6.866,0,0,1-2.148-1.45,6.8,6.8,0,0,1-1.45-2.158,6.616,6.616,0,0,1-.53-2.634,6.622,6.622,0,0,1,.53-2.634A6.8,6.8,0,0,1,742.1,1.98,6.866,6.866,0,0,1,744.248.53a6.77,6.77,0,0,1,8.869,3.608,6.624,6.624,0,0,1,.53,2.634,6.618,6.618,0,0,1-.53,2.634,6.751,6.751,0,0,1-3.608,3.608,6.616,6.616,0,0,1-2.634.53Zm0-12.519a5.538,5.538,0,0,0-2.232.451,5.835,5.835,0,0,0-3.063,3.065,5.55,5.55,0,0,0-.451,2.229A5.55,5.55,0,0,0,741.578,9a5.82,5.82,0,0,0,3.063,3.068,5.538,5.538,0,0,0,2.227.451,5.609,5.609,0,0,0,2.237-.451A5.8,5.8,0,0,0,752.183,9a5.55,5.55,0,0,0,.451-2.229,5.551,5.551,0,0,0-.446-2.231,5.812,5.812,0,0,0-3.077-3.065A5.608,5.608,0,0,0,746.874,1.026Z" transform="translate(-182.09 635.053)" fill="#70c7f0"/>
    <path id="Path_1221" data-name="Path 1221" d="M829.314,6.449A4.059,4.059,0,0,1,832.005,7.7a4.007,4.007,0,0,1,.8,1.257,3.949,3.949,0,0,1,.293,1.514,3.827,3.827,0,0,1-.32,1.556,4.181,4.181,0,0,1-.858,1.273,3.84,3.84,0,0,1-1.272.858,3.978,3.978,0,0,1-1.566.31h-4.611a.491.491,0,0,1-.336-.141.449.449,0,0,1-.15-.336.468.468,0,0,1,.15-.353.491.491,0,0,1,.336-.141h4.608a2.877,2.877,0,0,0,1.167-.239,3.18,3.18,0,0,0,.964-.646,2.965,2.965,0,0,0,.654-.964,3.032,3.032,0,0,0-.654-3.326,3.175,3.175,0,0,0-.964-.644,2.877,2.877,0,0,0-1.167-.239.585.585,0,0,1-.1,0,.346.346,0,0,1-.1-.027l-1.1-.124a.049.049,0,0,0-.035-.017,2.91,2.91,0,0,1-1.167-.239,3.216,3.216,0,0,1-.989-.673,2.9,2.9,0,0,1-.69-1,3.028,3.028,0,0,1-.23-1.178,2.9,2.9,0,0,1,.247-1.193A3.292,3.292,0,0,1,825.591,2a2.986,2.986,0,0,1,.982-.663,3.043,3.043,0,0,1,1.2-.239h3.5a.479.479,0,0,1,.353.141.461.461,0,0,1,.141.336.483.483,0,0,1-.495.495h-3.5a2.044,2.044,0,0,0-.813.168,2.1,2.1,0,0,0-1.12,1.115,2.042,2.042,0,0,0-.168.813,1.978,1.978,0,0,0,.168.8,2.092,2.092,0,0,0,.461.664,2.249,2.249,0,0,0,.673.451,2.051,2.051,0,0,0,.814.168.122.122,0,0,1,.054.008.128.128,0,0,0,.052.008l1.346.16a.069.069,0,0,1,.035.008A.069.069,0,0,0,829.314,6.449Z" transform="translate(-251.851 634.14)" fill="#70c7f0"/>
    <path id="Path_61" data-name="Path 61" d="M336.758,4.622h.969a1.577,1.577,0,0,0,.865-.212.649.649,0,0,0,.338-.568.8.8,0,0,0-.252-.667,1.591,1.591,0,0,0-.9-.2h-1Zm0,.9V7.775h-1.072v-5.7h2a2.775,2.775,0,0,1,1.689.451A1.536,1.536,0,0,1,340,3.833,1.288,1.288,0,0,1,339.19,5a1.235,1.235,0,0,1,.608.581,2.15,2.15,0,0,1,.176.924,6.8,6.8,0,0,0,.022.779,1.217,1.217,0,0,0,.1.383V7.78h-1.1a5.026,5.026,0,0,1-.09-1.3.991.991,0,0,0-.239-.739,1.1,1.1,0,0,0-.779-.225Zm5.2-.514a4.189,4.189,0,0,0-.545-2.072A4.055,4.055,0,0,0,339.9,1.405a4.122,4.122,0,0,0-2.095-.577,4.217,4.217,0,0,0-2.1.55A4.019,4.019,0,0,0,334.181,2.9a4.168,4.168,0,0,0-.554,2.108,4.177,4.177,0,0,0,.55,2.113A4.055,4.055,0,0,0,335.7,8.649a4.208,4.208,0,0,0,4.221,0,4.023,4.023,0,0,0,1.491-1.55,4.217,4.217,0,0,0,.541-2.09m-9.222,0a4.956,4.956,0,0,1,.667-2.518A4.825,4.825,0,0,1,335.235.657a5.186,5.186,0,0,1,5.086,0,4.865,4.865,0,0,1,1.843,1.834,5,5,0,0,1,.662,2.518,4.956,4.956,0,0,1-.676,2.536,4.888,4.888,0,0,1-1.843,1.829,5.14,5.14,0,0,1-5.073,0,4.986,4.986,0,0,1-2.5-4.361" transform="translate(248.531 625.01)" fill="#fff"/>
  </g>
</svg>
