<svg xmlns="http://www.w3.org/2000/svg" xmlns:xlink="http://www.w3.org/1999/xlink" width="600" height="465" viewBox="0 0 600 465">
  <defs>
    <linearGradient id="linear-gradient" y1="0.362" x2="1" y2="0.362" gradientUnits="objectBoundingBox">
      <stop offset="0" stop-color="#233a54"/>
      <stop offset="1" stop-color="#060d19"/>
    </linearGradient>
    <filter id="Path_1615" x="0" y="0" width="600" height="465" filterUnits="userSpaceOnUse">
      <feOffset input="SourceAlpha"/>
      <feGaussianBlur stdDeviation="1" result="blur"/>
      <feFlood/>
      <feComposite operator="in" in2="blur"/>
    </filter>
    <filter id="Path_1615-2" x="0" y="0" width="600" height="465" filterUnits="userSpaceOnUse">
      <feOffset dy="0.5" input="SourceAlpha"/>
      <feGaussianBlur stdDeviation="0.5" result="blur-2"/>
      <feFlood flood-color="#fff" flood-opacity="0.161" result="color"/>
      <feComposite operator="out" in="SourceGraphic" in2="blur-2"/>
      <feComposite operator="in" in="color"/>
      <feComposite operator="in" in2="SourceGraphic"/>
    </filter>
  </defs>
  <g data-type="innerShadowGroup">
    <g transform="matrix(1, 0, 0, 1, 0, 0)" filter="url(#Path_1615)">
      <g id="Path_1615-3" data-name="Path 1615" transform="translate(304 3)" fill="url(#linear-gradient)">
        <path d="M 281 458.75 L -289 458.75 C -292.1385498046875 458.75 -295.0892333984375 457.5277709960938 -297.3084716796875 455.3084716796875 C -299.5277709960938 453.0892333984375 -300.75 450.1385498046875 -300.75 447 L -300.75 30 C -300.75 26.32723045349121 -299.3197631835938 22.87430763244629 -296.7226867675781 20.27730751037598 C -294.1257019042969 17.68023109436035 -290.6727600097656 16.25 -287 16.25 L 202.9770050048828 16.25 L 203.0773010253906 16.25 L 203.1497650146484 16.18069267272949 L 219.8079833984375 0.25 L 281 0.25 C 284.1385498046875 0.25 287.0892333984375 1.472230792045593 289.3084716796875 3.691538572311401 C 291.5277709960938 5.910769462585449 292.75 8.861461639404297 292.75 12 L 292.75 447 C 292.75 450.1385498046875 291.5277709960938 453.0892333984375 289.3084716796875 455.3084716796875 C 287.0892333984375 457.5277709960938 284.1385498046875 458.75 281 458.75 Z" stroke="none"/>
        <path d="M 219.9082794189453 0.5 L 203.1776123046875 16.5 L -287 16.5 C -290.6059875488281 16.5 -293.9961547851562 17.90423583984375 -296.5459289550781 20.45407104492188 C -299.0957641601562 23.00384521484375 -300.5 26.39401245117188 -300.5 30 L -300.5 447 C -300.5 450.07177734375 -299.3037719726562 452.9596252441406 -297.1316833496094 455.1316833496094 C -294.9596252441406 457.3037719726562 -292.07177734375 458.5 -289 458.5 L 281 458.5 C 284.07177734375 458.5 286.9596252441406 457.3037719726562 289.1316833496094 455.1316833496094 C 291.3037719726562 452.9596252441406 292.5 450.07177734375 292.5 447 L 292.5 12 C 292.5 8.92822265625 291.3037719726562 6.040374755859375 289.1316833496094 3.868316650390625 C 286.9596252441406 1.69622802734375 284.07177734375 0.5 281 0.5 L 219.9082794189453 0.5 M 219.7076873779297 0 L 281 0 C 287.6273803710938 0 293 5.37261962890625 293 12 L 293 447 C 293 453.6273803710938 287.6273803710938 459 281 459 L -289 459 C -295.6273803710938 459 -301 453.6273803710938 -301 447 L -301 30 C -301 22.26800537109375 -294.7319946289062 16 -287 16 L 202.9770050048828 16 L 219.7076873779297 0 Z" stroke="none" fill="#1b2b44"/>
      </g>
    </g>
    <g id="Path_1615-4" data-name="Path 1615" transform="translate(304 3)" fill="url(#linear-gradient)">
      <path d="M 281 458.75 L -289 458.75 C -292.1385498046875 458.75 -295.0892333984375 457.5277709960938 -297.3084716796875 455.3084716796875 C -299.5277709960938 453.0892333984375 -300.75 450.1385498046875 -300.75 447 L -300.75 30 C -300.75 26.32723045349121 -299.3197631835938 22.87430763244629 -296.7226867675781 20.27730751037598 C -294.1257019042969 17.68023109436035 -290.6727600097656 16.25 -287 16.25 L 202.9770050048828 16.25 L 203.0773010253906 16.25 L 203.1497650146484 16.18069267272949 L 219.8079833984375 0.25 L 281 0.25 C 284.1385498046875 0.25 287.0892333984375 1.472230792045593 289.3084716796875 3.691538572311401 C 291.5277709960938 5.910769462585449 292.75 8.861461639404297 292.75 12 L 292.75 447 C 292.75 450.1385498046875 291.5277709960938 453.0892333984375 289.3084716796875 455.3084716796875 C 287.0892333984375 457.5277709960938 284.1385498046875 458.75 281 458.75 Z" stroke="none"/>
      <path d="M 219.9082794189453 0.5 L 203.1776123046875 16.5 L -287 16.5 C -290.6059875488281 16.5 -293.9961547851562 17.90423583984375 -296.5459289550781 20.45407104492188 C -299.0957641601562 23.00384521484375 -300.5 26.39401245117188 -300.5 30 L -300.5 447 C -300.5 450.07177734375 -299.3037719726562 452.9596252441406 -297.1316833496094 455.1316833496094 C -294.9596252441406 457.3037719726562 -292.07177734375 458.5 -289 458.5 L 281 458.5 C 284.07177734375 458.5 286.9596252441406 457.3037719726562 289.1316833496094 455.1316833496094 C 291.3037719726562 452.9596252441406 292.5 450.07177734375 292.5 447 L 292.5 12 C 292.5 8.92822265625 291.3037719726562 6.040374755859375 289.1316833496094 3.868316650390625 C 286.9596252441406 1.69622802734375 284.07177734375 0.5 281 0.5 L 219.9082794189453 0.5 M 219.7076873779297 0 L 281 0 C 287.6273803710938 0 293 5.37261962890625 293 12 L 293 447 C 293 453.6273803710938 287.6273803710938 459 281 459 L -289 459 C -295.6273803710938 459 -301 453.6273803710938 -301 447 L -301 30 C -301 22.26800537109375 -294.7319946289062 16 -287 16 L 202.9770050048828 16 L 219.7076873779297 0 Z" stroke="none"/>
    </g>
    <g transform="matrix(1, 0, 0, 1, 0, 0)" filter="url(#Path_1615-2)">
      <g id="Path_1615-5" data-name="Path 1615" transform="translate(304 3)" fill="#fff">
        <path d="M 281 458.75 L -289 458.75 C -292.1385498046875 458.75 -295.0892333984375 457.5277709960938 -297.3084716796875 455.3084716796875 C -299.5277709960938 453.0892333984375 -300.75 450.1385498046875 -300.75 447 L -300.75 30 C -300.75 26.32723045349121 -299.3197631835938 22.87430763244629 -296.7226867675781 20.27730751037598 C -294.1257019042969 17.68023109436035 -290.6727600097656 16.25 -287 16.25 L 202.9770050048828 16.25 L 203.0773010253906 16.25 L 203.1497650146484 16.18069267272949 L 219.8079833984375 0.25 L 281 0.25 C 284.1385498046875 0.25 287.0892333984375 1.472230792045593 289.3084716796875 3.691538572311401 C 291.5277709960938 5.910769462585449 292.75 8.861461639404297 292.75 12 L 292.75 447 C 292.75 450.1385498046875 291.5277709960938 453.0892333984375 289.3084716796875 455.3084716796875 C 287.0892333984375 457.5277709960938 284.1385498046875 458.75 281 458.75 Z" stroke="none"/>
        <path d="M 219.9082794189453 0.5 L 203.1776123046875 16.5 L -287 16.5 C -290.6059875488281 16.5 -293.9961547851562 17.90423583984375 -296.5459289550781 20.45407104492188 C -299.0957641601562 23.00384521484375 -300.5 26.39401245117188 -300.5 30 L -300.5 447 C -300.5 450.07177734375 -299.3037719726562 452.9596252441406 -297.1316833496094 455.1316833496094 C -294.9596252441406 457.3037719726562 -292.07177734375 458.5 -289 458.5 L 281 458.5 C 284.07177734375 458.5 286.9596252441406 457.3037719726562 289.1316833496094 455.1316833496094 C 291.3037719726562 452.9596252441406 292.5 450.07177734375 292.5 447 L 292.5 12 C 292.5 8.92822265625 291.3037719726562 6.040374755859375 289.1316833496094 3.868316650390625 C 286.9596252441406 1.69622802734375 284.07177734375 0.5 281 0.5 L 219.9082794189453 0.5 M 219.7076873779297 0 L 281 0 C 287.6273803710938 0 293 5.37261962890625 293 12 L 293 447 C 293 453.6273803710938 287.6273803710938 459 281 459 L -289 459 C -295.6273803710938 459 -301 453.6273803710938 -301 447 L -301 30 C -301 22.26800537109375 -294.7319946289062 16 -287 16 L 202.9770050048828 16 L 219.7076873779297 0 Z" stroke="none"/>
      </g>
    </g>
    <g id="Path_1615-6" data-name="Path 1615" transform="translate(304 3)" fill="none">
      <path d="M 281 458.75 L -289 458.75 C -292.1385498046875 458.75 -295.0892333984375 457.5277709960938 -297.3084716796875 455.3084716796875 C -299.5277709960938 453.0892333984375 -300.75 450.1385498046875 -300.75 447 L -300.75 30 C -300.75 26.32723045349121 -299.3197631835938 22.87430763244629 -296.7226867675781 20.27730751037598 C -294.1257019042969 17.68023109436035 -290.6727600097656 16.25 -287 16.25 L 202.9770050048828 16.25 L 203.0773010253906 16.25 L 203.1497650146484 16.18069267272949 L 219.8079833984375 0.25 L 281 0.25 C 284.1385498046875 0.25 287.0892333984375 1.472230792045593 289.3084716796875 3.691538572311401 C 291.5277709960938 5.910769462585449 292.75 8.861461639404297 292.75 12 L 292.75 447 C 292.75 450.1385498046875 291.5277709960938 453.0892333984375 289.3084716796875 455.3084716796875 C 287.0892333984375 457.5277709960938 284.1385498046875 458.75 281 458.75 Z" stroke="none"/>
      <path d="M 219.9082794189453 0.5 L 203.1776123046875 16.5 L -287 16.5 C -290.6059875488281 16.5 -293.9961547851562 17.90423583984375 -296.5459289550781 20.45407104492188 C -299.0957641601562 23.00384521484375 -300.5 26.39401245117188 -300.5 30 L -300.5 447 C -300.5 450.07177734375 -299.3037719726562 452.9596252441406 -297.1316833496094 455.1316833496094 C -294.9596252441406 457.3037719726562 -292.07177734375 458.5 -289 458.5 L 281 458.5 C 284.07177734375 458.5 286.9596252441406 457.3037719726562 289.1316833496094 455.1316833496094 C 291.3037719726562 452.9596252441406 292.5 450.07177734375 292.5 447 L 292.5 12 C 292.5 8.92822265625 291.3037719726562 6.040374755859375 289.1316833496094 3.868316650390625 C 286.9596252441406 1.69622802734375 284.07177734375 0.5 281 0.5 L 219.9082794189453 0.5 M 219.7076873779297 0 L 281 0 C 287.6273803710938 0 293 5.37261962890625 293 12 L 293 447 C 293 453.6273803710938 287.6273803710938 459 281 459 L -289 459 C -295.6273803710938 459 -301 453.6273803710938 -301 447 L -301 30 C -301 22.26800537109375 -294.7319946289062 16 -287 16 L 202.9770050048828 16 L 219.7076873779297 0 Z" stroke="none" fill="#1b2b44"/>
    </g>
  </g>
</svg>
