<svg xmlns="http://www.w3.org/2000/svg" width="43.065" height="40.722" viewBox="0 0 43.065 40.722">
  <g id="Group_17054" data-name="Group 17054" transform="translate(-606.001 -269.278)">
    <path id="Path_2508" data-name="Path 2508" d="M269.158,97.736H236.9a5.393,5.393,0,0,1-4.681-2.593,4.973,4.973,0,0,1-.132-4.934l16.129-30.367a5.51,5.51,0,0,1,9.626,0l16.129,30.367a4.973,4.973,0,0,1-.132,4.934A5.393,5.393,0,0,1,269.158,97.736ZM253.029,60.182a2.219,2.219,0,0,0-2.015,1.146L234.886,91.694a1.791,1.791,0,0,0,.049,1.816,2.252,2.252,0,0,0,1.966,1.058h32.257a2.252,2.252,0,0,0,1.966-1.058,1.791,1.791,0,0,0,.049-1.816L255.044,61.327A2.219,2.219,0,0,0,253.029,60.182Z" transform="translate(374.504 212.264)" fill="red"/>
    <path id="Path_2509" data-name="Path 2509" d="M303.722,114.959h0c-.777,0-1.432-.317-1.466-.724l-1.163-14.006a2.517,2.517,0,0,1,2.629-2.629h0a2.517,2.517,0,0,1,2.629,2.629l-1.163,14.006C305.154,114.643,304.5,114.959,303.722,114.959Z" transform="translate(323.813 182.698)" fill="red"/>
    <path id="Path_2510" data-name="Path 2510" d="M2.268,0A2.268,2.268,0,1,1,0,2.268,2.268,2.268,0,0,1,2.268,0Z" transform="translate(625.266 299.322)" fill="red"/>
  </g>
</svg>
