<svg xmlns="http://www.w3.org/2000/svg" width="35.464" height="33.25" viewBox="0 0 35.464 33.25">
  <path id="Path_346" data-name="Path 346" d="M32,12.824h-.819v9.265H32a3.365,3.365,0,0,1,3.463,3.278v5.463A3.365,3.365,0,0,1,32,34.107H26.156a3.354,3.354,0,0,1-3.463-3.278v-.754H12.761v.754a3.354,3.354,0,0,1-3.452,3.278H3.463A3.354,3.354,0,0,1,0,30.829V25.366a3.354,3.354,0,0,1,3.463-3.278h.808V12.824H3.463A3.354,3.354,0,0,1,0,9.59V4.127A3.354,3.354,0,0,1,3.463.9H9.309a3.354,3.354,0,0,1,3.452,3.278v.754h9.931v-.8A3.354,3.354,0,0,1,26.156.86H32a3.365,3.365,0,0,1,3.463,3.278V9.6A3.365,3.365,0,0,1,32,12.824Zm-9.309,12.5a3.354,3.354,0,0,1,3.463-3.278h.808V12.824h-.808a3.354,3.354,0,0,1-3.463-3.278v-.71H12.761V9.59a3.354,3.354,0,0,1-3.452,3.278H8.489v9.265h.819a3.354,3.354,0,0,1,3.452,3.278v.754h9.931V25.41m-12.8.5v-.5a.557.557,0,0,0-.579-.535H3.463a.557.557,0,0,0-.579.535v5.463a.557.557,0,0,0,.579.546H9.309a.557.557,0,0,0,.579-.546V25.825m-6.424-15.7H9.309a.557.557,0,0,0,.579-.535V4.127a.557.557,0,0,0-.579-.546H3.463a.557.557,0,0,0-.579.546V9.59a.557.557,0,0,0,.579.535M32,24.787H26.156a.557.557,0,0,0-.579.535v5.463a.557.557,0,0,0,.579.546H32a.557.557,0,0,0,.579-.546V25.322A.557.557,0,0,0,32,24.787m-.918-14.662H32a.557.557,0,0,0,.579-.535V4.127A.557.557,0,0,0,32,3.581H26.156a.557.557,0,0,0-.579.546V9.59a.557.557,0,0,0,.579.535h4.927" transform="translate(0 -0.858)" fill="#fff"/>
</svg>
