<svg xmlns="http://www.w3.org/2000/svg" xmlns:xlink="http://www.w3.org/1999/xlink" width="329" height="40" viewBox="0 0 329 40">
  <defs>
    <linearGradient id="linear-gradient" x1="0.6" x2="0.601" y2="1" gradientUnits="objectBoundingBox">
      <stop offset="0" stop-color="#233a54"/>
      <stop offset="1" stop-color="#233a54"/>
    </linearGradient>
    <filter id="Path_2435" x="0" y="0" width="329" height="40" filterUnits="userSpaceOnUse">
      <feOffset dy="3" input="SourceAlpha"/>
      <feGaussianBlur stdDeviation="3" result="blur"/>
      <feFlood flood-opacity="0.161"/>
      <feComposite operator="in" in2="blur"/>
    </filter>
    <filter id="Path_2435-2" x="0" y="0" width="329" height="40" filterUnits="userSpaceOnUse">
      <feOffset dy="1" input="SourceAlpha"/>
      <feGaussianBlur stdDeviation="0.5" result="blur-2"/>
      <feFlood flood-color="#fff" flood-opacity="0.161" result="color"/>
      <feComposite operator="out" in="SourceGraphic" in2="blur-2"/>
      <feComposite operator="in" in="color"/>
      <feComposite operator="in" in2="SourceGraphic"/>
    </filter>
  </defs>
  <g data-type="innerShadowGroup">
    <g transform="matrix(1, 0, 0, 1, 0, 0)" filter="url(#Path_2435)">
      <g id="Path_2435-3" data-name="Path 2435" transform="translate(9 6)" fill="url(#linear-gradient)">
        <path d="M 310.3964538574219 21.75 L 0.25 21.75 L 0.25 4 C 0.25 1.932230710983276 1.932230710983276 0.25 4 0.25 L 288.8964538574219 0.25 L 310.3964538574219 21.75 Z" stroke="none"/>
        <path d="M 4 0.5 C 2.070068359375 0.5 0.5 2.070075988769531 0.5 4 L 0.5 21.5 L 309.7929382324219 21.5 L 288.7929077148438 0.5 L 4 0.5 M 4 0 L 289 0 L 311 22 L 0 22 L 0 4 C 0 1.79084587097168 1.79083251953125 0 4 0 Z" stroke="none" fill="#000"/>
      </g>
    </g>
    <g id="Path_2435-4" data-name="Path 2435" transform="translate(9 6)" fill="url(#linear-gradient)">
      <path d="M 310.3964538574219 21.75 L 0.25 21.75 L 0.25 4 C 0.25 1.932230710983276 1.932230710983276 0.25 4 0.25 L 288.8964538574219 0.25 L 310.3964538574219 21.75 Z" stroke="none"/>
      <path d="M 4 0.5 C 2.070068359375 0.5 0.5 2.070075988769531 0.5 4 L 0.5 21.5 L 309.7929382324219 21.5 L 288.7929077148438 0.5 L 4 0.5 M 4 0 L 289 0 L 311 22 L 0 22 L 0 4 C 0 1.79084587097168 1.79083251953125 0 4 0 Z" stroke="none"/>
    </g>
    <g transform="matrix(1, 0, 0, 1, 0, 0)" filter="url(#Path_2435-2)">
      <g id="Path_2435-5" data-name="Path 2435" transform="translate(9 6)" fill="#fff">
        <path d="M 310.3964538574219 21.75 L 0.25 21.75 L 0.25 4 C 0.25 1.932230710983276 1.932230710983276 0.25 4 0.25 L 288.8964538574219 0.25 L 310.3964538574219 21.75 Z" stroke="none"/>
        <path d="M 4 0.5 C 2.070068359375 0.5 0.5 2.070075988769531 0.5 4 L 0.5 21.5 L 309.7929382324219 21.5 L 288.7929077148438 0.5 L 4 0.5 M 4 0 L 289 0 L 311 22 L 0 22 L 0 4 C 0 1.79084587097168 1.79083251953125 0 4 0 Z" stroke="none"/>
      </g>
    </g>
    <g id="Path_2435-6" data-name="Path 2435" transform="translate(9 6)" fill="none">
      <path d="M 310.3964538574219 21.75 L 0.25 21.75 L 0.25 4 C 0.25 1.932230710983276 1.932230710983276 0.25 4 0.25 L 288.8964538574219 0.25 L 310.3964538574219 21.75 Z" stroke="none"/>
      <path d="M 4 0.5 C 2.070068359375 0.5 0.5 2.070075988769531 0.5 4 L 0.5 21.5 L 309.7929382324219 21.5 L 288.7929077148438 0.5 L 4 0.5 M 4 0 L 289 0 L 311 22 L 0 22 L 0 4 C 0 1.79084587097168 1.79083251953125 0 4 0 Z" stroke="none" fill="#000"/>
    </g>
  </g>
</svg>
