<svg xmlns="http://www.w3.org/2000/svg" width="16.532" height="15.5" viewBox="0 0 16.532 15.5">
  <path id="Path_2331" data-name="Path 2331" d="M14.918,6.436h-.382v4.319h.382a1.569,1.569,0,0,1,1.615,1.528V14.83a1.569,1.569,0,0,1-1.615,1.528H12.193a1.564,1.564,0,0,1-1.615-1.528v-.351H5.949v.351a1.564,1.564,0,0,1-1.609,1.528H1.615A1.564,1.564,0,0,1,0,14.83V12.283a1.564,1.564,0,0,1,1.615-1.528h.377V6.436H1.615A1.564,1.564,0,0,1,0,4.929V2.382A1.564,1.564,0,0,1,1.615.88H4.339A1.564,1.564,0,0,1,5.949,2.407v.351h4.63V2.387A1.564,1.564,0,0,1,12.193.859h2.725a1.569,1.569,0,0,1,1.615,1.528V4.934A1.569,1.569,0,0,1,14.918,6.436Zm-4.339,5.827a1.564,1.564,0,0,1,1.615-1.528h.377v-4.3h-.377a1.564,1.564,0,0,1-1.615-1.528V4.577H5.949v.351A1.564,1.564,0,0,1,4.339,6.457H3.957v4.319h.382A1.564,1.564,0,0,1,5.949,12.3v.351h4.63V12.3m-5.969.234V12.3a.26.26,0,0,0-.27-.25H1.615a.26.26,0,0,0-.27.25V14.85a.26.26,0,0,0,.27.255H4.339a.26.26,0,0,0,.27-.255V12.5M1.615,5.178H4.339a.26.26,0,0,0,.27-.25V2.382a.26.26,0,0,0-.27-.255H1.615a.26.26,0,0,0-.27.255V4.929a.26.26,0,0,0,.27.25m13.3,6.835H12.193a.26.26,0,0,0-.27.25v2.547a.26.26,0,0,0,.27.255h2.725a.26.26,0,0,0,.27-.255V12.263a.26.26,0,0,0-.27-.25M14.49,5.178h.428a.26.26,0,0,0,.27-.25V2.382a.26.26,0,0,0-.27-.255H12.193a.26.26,0,0,0-.27.255V4.929a.26.26,0,0,0,.27.25h2.3" transform="translate(0 -0.858)" fill="#fff"/>
</svg>
