<svg xmlns="http://www.w3.org/2000/svg" width="20.127" height="18.87" viewBox="0 0 20.127 18.87">
  <path id="Path_205" data-name="Path 205" d="M18.161,7.649H17.7v5.258h.465a1.91,1.91,0,0,1,1.966,1.86v3.1a1.91,1.91,0,0,1-1.966,1.86H14.844a1.9,1.9,0,0,1-1.966-1.86v-.428H7.242v.428a1.9,1.9,0,0,1-1.959,1.86H1.966A1.9,1.9,0,0,1,0,17.867v-3.1a1.9,1.9,0,0,1,1.966-1.86h.459V7.649H1.966A1.9,1.9,0,0,1,0,5.814v-3.1A1.9,1.9,0,0,1,1.966.884H5.283a1.9,1.9,0,0,1,1.959,1.86v.428h5.636V2.72A1.9,1.9,0,0,1,14.844.859h3.317a1.91,1.91,0,0,1,1.966,1.86v3.1a1.91,1.91,0,0,1-1.966,1.829Zm-5.283,7.093a1.9,1.9,0,0,1,1.966-1.86H15.3V7.649h-.459a1.9,1.9,0,0,1-1.966-1.86v-.4H7.242v.428a1.9,1.9,0,0,1-1.959,1.86H4.818v5.258h.465a1.9,1.9,0,0,1,1.959,1.86v.428h5.636v-.428m-7.267.285v-.285a.316.316,0,0,0-.329-.3H1.966a.316.316,0,0,0-.329.3v3.1a.316.316,0,0,0,.329.31H5.283a.316.316,0,0,0,.329-.31V15.027M1.966,6.117H5.283a.316.316,0,0,0,.329-.3v-3.1a.316.316,0,0,0-.329-.31H1.966a.316.316,0,0,0-.329.31v3.1a.316.316,0,0,0,.329.3m16.2,8.321H14.844a.316.316,0,0,0-.329.3v3.1a.316.316,0,0,0,.329.31h3.317a.316.316,0,0,0,.329-.31v-3.1a.316.316,0,0,0-.329-.3M17.64,6.117h.521a.316.316,0,0,0,.329-.3v-3.1a.316.316,0,0,0-.329-.31H14.844a.316.316,0,0,0-.329.31v3.1a.316.316,0,0,0,.329.3h2.8" transform="translate(0 -0.858)" fill="#fff"/>
</svg>
