<svg xmlns="http://www.w3.org/2000/svg" xmlns:xlink="http://www.w3.org/1999/xlink" width="901" height="491" viewBox="0 0 901 491" preserveAspectRatio="none">
  <defs>
    <filter id="Path_1616" x="0" y="0" width="901" height="491" filterUnits="userSpaceOnUse">
      <feOffset input="SourceAlpha"/>
      <feGaussianBlur stdDeviation="3" result="blur"/>
      <feFlood result="color"/>
      <feComposite operator="out" in="SourceGraphic" in2="blur"/>
      <feComposite operator="in" in="color"/>
      <feComposite operator="in" in2="SourceGraphic"/>
    </filter>
  </defs>
  <g data-type="innerShadowGroup">
    <path id="Path_1616-2" data-name="Path 1616" d="M16,0H279.807l25.951,26H885a16,16,0,0,1,16,16V475a16,16,0,0,1-16,16H16A16,16,0,0,1,0,475V16A16,16,0,0,1,16,0Z" fill="#233a54"/>
    <g transform="matrix(1, 0, 0, 1, 0, 0)" filter="url(#Path_1616)">
      <path id="Path_1616-3" data-name="Path 1616" d="M16,0H279.807l25.951,26H885a16,16,0,0,1,16,16V475a16,16,0,0,1-16,16H16A16,16,0,0,1,0,475V16A16,16,0,0,1,16,0Z" fill="#fff"/>
    </g>
  </g>
</svg>
