<svg xmlns="http://www.w3.org/2000/svg" xmlns:xlink="http://www.w3.org/1999/xlink" width="600" height="454" viewBox="0 0 600 454">
  <defs>
    <linearGradient id="linear-gradient" y1="0.362" x2="1" y2="0.362" gradientUnits="objectBoundingBox">
      <stop offset="0" stop-color="#233a54"/>
      <stop offset="1" stop-color="#060d19"/>
    </linearGradient>
    <filter id="Path_1615" x="0" y="0" width="600" height="454" filterUnits="userSpaceOnUse">
      <feOffset input="SourceAlpha"/>
      <feGaussianBlur stdDeviation="1" result="blur"/>
      <feFlood/>
      <feComposite operator="in" in2="blur"/>
    </filter>
    <filter id="Path_1615-2" x="0" y="0" width="600" height="454" filterUnits="userSpaceOnUse">
      <feOffset dy="0.5" input="SourceAlpha"/>
      <feGaussianBlur stdDeviation="0.5" result="blur-2"/>
      <feFlood flood-color="#fff" flood-opacity="0.161" result="color"/>
      <feComposite operator="out" in="SourceGraphic" in2="blur-2"/>
      <feComposite operator="in" in="color"/>
      <feComposite operator="in" in2="SourceGraphic"/>
    </filter>
  </defs>
  <g data-type="innerShadowGroup">
    <g transform="matrix(1, 0, 0, 1, 0, 0)" filter="url(#Path_1615)">
      <g id="Path_1615-3" data-name="Path 1615" transform="translate(304 3)" fill="url(#linear-gradient)">
        <path d="M 281 447.75 L -289 447.75 C -292.1385498046875 447.75 -295.0892333984375 446.5277709960938 -297.3084716796875 444.3084716796875 C -299.5277709960938 442.0892333984375 -300.75 439.1385498046875 -300.75 436 L -300.75 30 C -300.75 26.32723045349121 -299.3197631835938 22.87430763244629 -296.7226867675781 20.27730751037598 C -294.1257019042969 17.68023109436035 -290.6727600097656 16.25 -287 16.25 L 39.97700119018555 16.25 L 40.07730865478516 16.25 L 40.1497688293457 16.18069267272949 L 56.80798721313477 0.25 L 181 0.25 C 184.1385345458984 0.25 187.0892333984375 1.472230792045593 189.3084564208984 3.691538572311401 C 191.5277709960938 5.910769462585449 192.75 8.861461639404297 192.75 12 L 192.75 16.31546211242676 L 192.75 16.56546211242676 L 193 16.56546211242676 L 292.75 16.5721378326416 L 292.75 436 C 292.75 439.1385498046875 291.5277709960938 442.0892333984375 289.3084716796875 444.3084716796875 C 287.0892333984375 446.5277709960938 284.1385498046875 447.75 281 447.75 Z" stroke="none"/>
        <path d="M 56.90828704833984 0.5 L 40.17761611938477 16.5 L -287 16.5 C -290.6059875488281 16.5 -293.9961547851562 17.90423583984375 -296.5459289550781 20.45407104492188 C -299.0957641601562 23.00384521484375 -300.5 26.39401245117188 -300.5 30 L -300.5 436 C -300.5 439.07177734375 -299.3037719726562 441.9596252441406 -297.1316833496094 444.1316833496094 C -294.9596252441406 446.3037719726562 -292.07177734375 447.5 -289 447.5 L 281 447.5 C 284.07177734375 447.5 286.9596252441406 446.3037719726562 289.1316833496094 444.1316833496094 C 291.3037719726562 441.9596252441406 292.5 439.07177734375 292.5 436 L 292.5 16.82211303710938 L 192.5 16.81539916992188 L 192.5 12 C 192.5 8.92822265625 191.3037719726562 6.040374755859375 189.1316986083984 3.868316650390625 C 186.9596099853516 1.69622802734375 184.0717620849609 0.5 181 0.5 L 56.90828704833984 0.5 M 56.70769500732422 0 L 181 0 C 187.6273803710938 0 193 5.37261962890625 193 12 L 193 16.31539916992188 L 293 16.3221435546875 L 293 436 C 293 442.6273803710938 287.6273803710938 448 281 448 L -289 448 C -295.6273803710938 448 -301 442.6273803710938 -301 436 L -301 30 C -301 22.26800537109375 -294.7319946289062 16 -287 16 L 39.97700119018555 16 L 56.70769500732422 0 Z" stroke="none" fill="#1b2b44"/>
      </g>
    </g>
    <g id="Path_1615-4" data-name="Path 1615" transform="translate(304 3)" fill="url(#linear-gradient)">
      <path d="M 281 447.75 L -289 447.75 C -292.1385498046875 447.75 -295.0892333984375 446.5277709960938 -297.3084716796875 444.3084716796875 C -299.5277709960938 442.0892333984375 -300.75 439.1385498046875 -300.75 436 L -300.75 30 C -300.75 26.32723045349121 -299.3197631835938 22.87430763244629 -296.7226867675781 20.27730751037598 C -294.1257019042969 17.68023109436035 -290.6727600097656 16.25 -287 16.25 L 39.97700119018555 16.25 L 40.07730865478516 16.25 L 40.1497688293457 16.18069267272949 L 56.80798721313477 0.25 L 181 0.25 C 184.1385345458984 0.25 187.0892333984375 1.472230792045593 189.3084564208984 3.691538572311401 C 191.5277709960938 5.910769462585449 192.75 8.861461639404297 192.75 12 L 192.75 16.31546211242676 L 192.75 16.56546211242676 L 193 16.56546211242676 L 292.75 16.5721378326416 L 292.75 436 C 292.75 439.1385498046875 291.5277709960938 442.0892333984375 289.3084716796875 444.3084716796875 C 287.0892333984375 446.5277709960938 284.1385498046875 447.75 281 447.75 Z" stroke="none"/>
      <path d="M 56.90828704833984 0.5 L 40.17761611938477 16.5 L -287 16.5 C -290.6059875488281 16.5 -293.9961547851562 17.90423583984375 -296.5459289550781 20.45407104492188 C -299.0957641601562 23.00384521484375 -300.5 26.39401245117188 -300.5 30 L -300.5 436 C -300.5 439.07177734375 -299.3037719726562 441.9596252441406 -297.1316833496094 444.1316833496094 C -294.9596252441406 446.3037719726562 -292.07177734375 447.5 -289 447.5 L 281 447.5 C 284.07177734375 447.5 286.9596252441406 446.3037719726562 289.1316833496094 444.1316833496094 C 291.3037719726562 441.9596252441406 292.5 439.07177734375 292.5 436 L 292.5 16.82211303710938 L 192.5 16.81539916992188 L 192.5 12 C 192.5 8.92822265625 191.3037719726562 6.040374755859375 189.1316986083984 3.868316650390625 C 186.9596099853516 1.69622802734375 184.0717620849609 0.5 181 0.5 L 56.90828704833984 0.5 M 56.70769500732422 0 L 181 0 C 187.6273803710938 0 193 5.37261962890625 193 12 L 193 16.31539916992188 L 293 16.3221435546875 L 293 436 C 293 442.6273803710938 287.6273803710938 448 281 448 L -289 448 C -295.6273803710938 448 -301 442.6273803710938 -301 436 L -301 30 C -301 22.26800537109375 -294.7319946289062 16 -287 16 L 39.97700119018555 16 L 56.70769500732422 0 Z" stroke="none"/>
    </g>
    <g transform="matrix(1, 0, 0, 1, 0, 0)" filter="url(#Path_1615-2)">
      <g id="Path_1615-5" data-name="Path 1615" transform="translate(304 3)" fill="#fff">
        <path d="M 281 447.75 L -289 447.75 C -292.1385498046875 447.75 -295.0892333984375 446.5277709960938 -297.3084716796875 444.3084716796875 C -299.5277709960938 442.0892333984375 -300.75 439.1385498046875 -300.75 436 L -300.75 30 C -300.75 26.32723045349121 -299.3197631835938 22.87430763244629 -296.7226867675781 20.27730751037598 C -294.1257019042969 17.68023109436035 -290.6727600097656 16.25 -287 16.25 L 39.97700119018555 16.25 L 40.07730865478516 16.25 L 40.1497688293457 16.18069267272949 L 56.80798721313477 0.25 L 181 0.25 C 184.1385345458984 0.25 187.0892333984375 1.472230792045593 189.3084564208984 3.691538572311401 C 191.5277709960938 5.910769462585449 192.75 8.861461639404297 192.75 12 L 192.75 16.31546211242676 L 192.75 16.56546211242676 L 193 16.56546211242676 L 292.75 16.5721378326416 L 292.75 436 C 292.75 439.1385498046875 291.5277709960938 442.0892333984375 289.3084716796875 444.3084716796875 C 287.0892333984375 446.5277709960938 284.1385498046875 447.75 281 447.75 Z" stroke="none"/>
        <path d="M 56.90828704833984 0.5 L 40.17761611938477 16.5 L -287 16.5 C -290.6059875488281 16.5 -293.9961547851562 17.90423583984375 -296.5459289550781 20.45407104492188 C -299.0957641601562 23.00384521484375 -300.5 26.39401245117188 -300.5 30 L -300.5 436 C -300.5 439.07177734375 -299.3037719726562 441.9596252441406 -297.1316833496094 444.1316833496094 C -294.9596252441406 446.3037719726562 -292.07177734375 447.5 -289 447.5 L 281 447.5 C 284.07177734375 447.5 286.9596252441406 446.3037719726562 289.1316833496094 444.1316833496094 C 291.3037719726562 441.9596252441406 292.5 439.07177734375 292.5 436 L 292.5 16.82211303710938 L 192.5 16.81539916992188 L 192.5 12 C 192.5 8.92822265625 191.3037719726562 6.040374755859375 189.1316986083984 3.868316650390625 C 186.9596099853516 1.69622802734375 184.0717620849609 0.5 181 0.5 L 56.90828704833984 0.5 M 56.70769500732422 0 L 181 0 C 187.6273803710938 0 193 5.37261962890625 193 12 L 193 16.31539916992188 L 293 16.3221435546875 L 293 436 C 293 442.6273803710938 287.6273803710938 448 281 448 L -289 448 C -295.6273803710938 448 -301 442.6273803710938 -301 436 L -301 30 C -301 22.26800537109375 -294.7319946289062 16 -287 16 L 39.97700119018555 16 L 56.70769500732422 0 Z" stroke="none"/>
      </g>
    </g>
    <g id="Path_1615-6" data-name="Path 1615" transform="translate(304 3)" fill="none">
      <path d="M 281 447.75 L -289 447.75 C -292.1385498046875 447.75 -295.0892333984375 446.5277709960938 -297.3084716796875 444.3084716796875 C -299.5277709960938 442.0892333984375 -300.75 439.1385498046875 -300.75 436 L -300.75 30 C -300.75 26.32723045349121 -299.3197631835938 22.87430763244629 -296.7226867675781 20.27730751037598 C -294.1257019042969 17.68023109436035 -290.6727600097656 16.25 -287 16.25 L 39.97700119018555 16.25 L 40.07730865478516 16.25 L 40.1497688293457 16.18069267272949 L 56.80798721313477 0.25 L 181 0.25 C 184.1385345458984 0.25 187.0892333984375 1.472230792045593 189.3084564208984 3.691538572311401 C 191.5277709960938 5.910769462585449 192.75 8.861461639404297 192.75 12 L 192.75 16.31546211242676 L 192.75 16.56546211242676 L 193 16.56546211242676 L 292.75 16.5721378326416 L 292.75 436 C 292.75 439.1385498046875 291.5277709960938 442.0892333984375 289.3084716796875 444.3084716796875 C 287.0892333984375 446.5277709960938 284.1385498046875 447.75 281 447.75 Z" stroke="none"/>
      <path d="M 56.90828704833984 0.5 L 40.17761611938477 16.5 L -287 16.5 C -290.6059875488281 16.5 -293.9961547851562 17.90423583984375 -296.5459289550781 20.45407104492188 C -299.0957641601562 23.00384521484375 -300.5 26.39401245117188 -300.5 30 L -300.5 436 C -300.5 439.07177734375 -299.3037719726562 441.9596252441406 -297.1316833496094 444.1316833496094 C -294.9596252441406 446.3037719726562 -292.07177734375 447.5 -289 447.5 L 281 447.5 C 284.07177734375 447.5 286.9596252441406 446.3037719726562 289.1316833496094 444.1316833496094 C 291.3037719726562 441.9596252441406 292.5 439.07177734375 292.5 436 L 292.5 16.82211303710938 L 192.5 16.81539916992188 L 192.5 12 C 192.5 8.92822265625 191.3037719726562 6.040374755859375 189.1316986083984 3.868316650390625 C 186.9596099853516 1.69622802734375 184.0717620849609 0.5 181 0.5 L 56.90828704833984 0.5 M 56.70769500732422 0 L 181 0 C 187.6273803710938 0 193 5.37261962890625 193 12 L 193 16.31539916992188 L 293 16.3221435546875 L 293 436 C 293 442.6273803710938 287.6273803710938 448 281 448 L -289 448 C -295.6273803710938 448 -301 442.6273803710938 -301 436 L -301 30 C -301 22.26800537109375 -294.7319946289062 16 -287 16 L 39.97700119018555 16 L 56.70769500732422 0 Z" stroke="none" fill="#1b2b44"/>
    </g>
  </g>
</svg>
