<svg id="Layer_1" data-name="Layer 1" xmlns="http://www.w3.org/2000/svg" width="109.14" height="109.16" viewBox="0 0 109.14 109.16">
  <path id="Path_173" data-name="Path 173" d="M29.69,11,27.51,7.18,27,7.45l2.18,3.78ZM4.35,54.57v-.28H0v.55H4.36C4.36,54.75,4.35,54.66,4.35,54.57ZM17.85,14.2l2.91,3.24.41-.36-2.92-3.25ZM44.38,5.4l-.9-4.26-.54.11.91,4.27C44,5.48,44.2,5.43,44.38,5.4Zm-10,3.19-1.78-4-.5.22,1.78,4ZM39.3,6.73,38,2.59l-.52.17,1.35,4.15ZM4.66,49,.33,48.59l-.06.54,4.33.46Zm.85-5.18L1.25,43l-.11.54,4.24.9a5.913,5.913,0,0,1,.13-.58Zm8.32-25.6,3.24,2.92.36-.41-3.24-2.92ZM49.58,4.61,49.12.27l-.54.06L49,4.67ZM6.89,38.79,2.75,37.44,2.58,38l4.14,1.35C6.77,39.13,6.84,39,6.89,38.79ZM14.1,24.84l-3.52-2.57-.32.44,3.53,2.57Zm-2.88,4.39L7.44,27.05l-.27.47L11,29.7ZM8.81,33.89l-4-1.77-.23.5,4,1.77ZM22.26,10.58l2.57,3.53.44-.31-2.56-3.54Zm75.9,19.13,3.81-2.2-.28-.47-3.8,2.19Zm2.36,4.69,4-1.79-.22-.5-4,1.79c.07.17.15.33.22.5Zm-5.2-9.11,3.56-2.59-.32-.44L95,24.84Zm7.07,14L106.55,38l-.17-.52-4.17,1.36Zm2.11,10.28,4.37-.46-.06-.54-4.37.46c.02.2.05.38.06.56Zm-.78-5.2,4.28-.91-.11-.53-4.29.91ZM95.3,18.24l-.36-.4-3.26,2.94.36.41ZM59.54,4.61l.54.06L60.54.31,60,.25ZM69.82,6.73l.51.18,1.36-4.17-.52-.17ZM64.73,5.4l.54.12.91-4.29-.54-.11ZM87.94,17.09l.41.36,2.94-3.27-.41-.36ZM54.28,4.37h.54V0h-.54ZM74.73,8.6l.5.22,1.78-4-.5-.22Zm9.11,5.2.44.32,2.59-3.55-.45-.33ZM79.42,11l.47.27,2.2-3.8-.47-.27Zm-47.3,93.33.5.22,1.77-4-.5-.22ZM87.94,92.05l2.93,3.25.41-.36-2.93-3.25C88.21,91.81,88.07,91.92,87.94,92.05Zm-4.1,3.28,2.57,3.55.44-.32L84.28,95Zm7.84-7,3.25,2.93.37-.4L92,87.94ZM79.42,98.17,81.6,102l.48-.27L79.89,97.9ZM95,84.29l3.55,2.57.32-.44-3.55-2.58ZM69.81,102.4l1.35,4.15.52-.17-1.35-4.15Zm4.91-1.86,1.78,4,.5-.22-1.78-4Zm27.49-30.21,4.17,1.36.17-.52-4.16-1.35Zm1.39-5.06,4.29.91.11-.54-4.28-.91Zm.84-5.19,4.37.46.06-.54-4.37-.46c-.01.18-.04.36-.06.54ZM4.6,59.54.27,60l.06.54,4.33-.46Zm100.15-5.25v.55h4.39v-.55Zm-40,49.45.9,4.26.54-.11-.91-4.28ZM100.3,75.23l4,1.78.23-.5-4-1.78ZM97.89,79.9l3.79,2.19.28-.48-3.8-2.19ZM11,79.43,7.18,81.61l.27.47,3.77-2.18Zm48.58,25.09.45,4.34h.55l-.46-4.35ZM17.9,94.92l.41.37,2.91-3.24-.41-.36Zm-4-4.06.37.41,3.23-2.91L17.07,88ZM5.38,64.74l-4.24.9.11.53,4.26-.9C5.47,65.09,5.42,64.92,5.38,64.74Zm1.34,5.08L2.59,71.16l.17.52,4.13-1.34c-.05-.17-.12-.34-.17-.52Zm1.86,4.92-4,1.76.22.5,4-1.77Zm5.21,9.11-3.53,2.56.32.44,3.52-2.56C14,84.15,13.89,84,13.79,83.85Zm34.8,24.94.54.06.45-4.33-.54-.06Zm5.69-4v4.37h.54v-4.37ZM43,107.87l.53.11.91-4.24-.53-.12Zm-5.51-1.51.52.17,1.34-4.13-.51-.17ZM22.27,98.54l.44.32,2.56-3.52L24.83,95Zm4.78,3.13.47.28,2.17-3.77-.47-.28Z" fill="#fff"/>
  <path id="Path_174" data-name="Path 174" d="M6.9,28l6.63,3.83c.26-.48.53-.95.81-1.42L7.72,26.57ZM31.81,13.53,28,6.9l-1.41.82,3.82,6.63Zm-24.19,41v-.82H0v1.63H7.64c0-.23-.02-.5-.02-.77Zm69.68-41,1.42.82L82.56,7.7l-1.42-.82ZM53.73,7.66h1.64V0H53.73ZM102.24,28l-.82-1.42-6.66,3.85c.29.46.56.94.82,1.42ZM94.77,78.72l6.64,3.84.82-1.42L95.58,77.3C95.32,77.78,95.05,78.26,94.77,78.72Zm6.69-25v1.63h7.68v-1.6ZM77.3,95.59l3.83,6.65,1.42-.82-3.83-6.64C78.25,95.06,77.78,95.33,77.3,95.59ZM6.9,81.13l.82,1.42,6.62-3.82c-.28-.47-.55-.94-.82-1.42Zm46.83,20.34v7.66h1.64v-7.66H53.73Zm-27.16-.07,1.42.82,3.82-6.62-1.42-.82Z" fill="#fff"/>
  <path id="Path_175" data-name="Path 175" d="M15,54q0,4.52-3.63,4.52a3.85,3.85,0,0,1-1-.1v-.76a3.33,3.33,0,0,0,1,.14,2.48,2.48,0,0,0,2-.78,3.85,3.85,0,0,0,.73-2.4H14a1.89,1.89,0,0,1-.79.66,2.73,2.73,0,0,1-1.12.23,2.13,2.13,0,0,1-2.3-2.32,2.59,2.59,0,0,1,.69-1.9,2.5,2.5,0,0,1,1.83-.7,2.5,2.5,0,0,1,1.42.41,2.57,2.57,0,0,1,.94,1.17A4.67,4.67,0,0,1,15,54Zm-2.69-2.66a1.48,1.48,0,0,0-1.2.49,1.94,1.94,0,0,0-.43,1.35,1.71,1.71,0,0,0,.39,1.19,1.55,1.55,0,0,0,1.2.44,2.28,2.28,0,0,0,.91-.19,1.61,1.61,0,0,0,.66-.54,1.19,1.19,0,0,0,.24-.71,2.49,2.49,0,0,0-.22-1,1.82,1.82,0,0,0-.63-.74,1.61,1.61,0,0,0-.9-.28Z" fill="#fff"/>
  <path id="Path_176" data-name="Path 176" d="M18.32,38h-.89V32.5a10.959,10.959,0,0,1,.05-1.3l-.26.24-1.3,1-.48-.6,2.11-1.58h.77Z" fill="#fff"/>
  <path id="Path_177" data-name="Path 177" d="M26.64,34.17a5.55,5.55,0,0,1-.65,3,2.23,2.23,0,0,1-2,1,2.19,2.19,0,0,1-2-1,5.34,5.34,0,0,1-.67-3,5.5,5.5,0,0,1,.65-3,2.21,2.21,0,0,1,2-1,2.21,2.21,0,0,1,2,1A5.36,5.36,0,0,1,26.64,34.17Zm-4.36,0a5.38,5.38,0,0,0,.41,2.45,1.49,1.49,0,0,0,2.61,0,5.53,5.53,0,0,0,.41-2.44,5.45,5.45,0,0,0-.41-2.43,1.49,1.49,0,0,0-2.61,0,5.33,5.33,0,0,0-.41,2.42Z" fill="#fff"/>
  <path id="Path_178" data-name="Path 178" d="M18.06,71a2.76,2.76,0,0,1,1.73.49,1.71,1.71,0,0,1,.27,2.4,3.22,3.22,0,0,1-1.17.85,3.87,3.87,0,0,1,1.38.94,1.7,1.7,0,0,1,.41,1.14A1.89,1.89,0,0,1,20,78.36a2.89,2.89,0,0,1-1.9.57,3.11,3.11,0,0,1-2-.54,1.83,1.83,0,0,1-.69-1.53c0-.89.56-1.57,1.67-2.07A2.93,2.93,0,0,1,16,73.9a1.82,1.82,0,0,1-.33-1.06,1.63,1.63,0,0,1,.64-1.34,2.75,2.75,0,0,1,1.75-.5Zm-1.73,5.88a1.17,1.17,0,0,0,.46,1,2,2,0,0,0,1.28.36,2,2,0,0,0,1.27-.37,1.25,1.25,0,0,0,.45-1,1.18,1.18,0,0,0-.43-.91,4.2,4.2,0,0,0-1.48-.78,3.33,3.33,0,0,0-1.18.75,1.44,1.44,0,0,0-.37.95Zm1.72-5.17A1.65,1.65,0,0,0,17,72a1,1,0,0,0-.39.84,1.22,1.22,0,0,0,.32.84,3.43,3.43,0,0,0,1.19.69,2.94,2.94,0,0,0,1.11-.68,1.25,1.25,0,0,0,.32-.85,1,1,0,0,0-.39-.84A1.72,1.72,0,0,0,18.05,71.71Z" fill="#fff"/>
  <path id="Path_179" data-name="Path 179" d="M33.7,23.11h-.88v-6.8a1.84,1.84,0,0,1-.25.23l-1.3,1L30.83,17l2.11-1.58h.76Z" fill="#fff"/>
  <path id="Path_180" data-name="Path 180" d="M40.09,23.11h-.88v-6.8a1.84,1.84,0,0,1-.25.23l-1.3,1L37.22,17l2.11-1.58h.76Z" fill="#fff"/>
  <path id="Path_181" data-name="Path 181" d="M31.87,93.74l3.31-6.9H30.83V86h5.31v.7l-3.27,7Z" fill="#fff"/>
  <path id="Path_182" data-name="Path 182" d="M52,95.91a5.31,5.31,0,0,1,.91-3.4,3.29,3.29,0,0,1,2.71-1.13,4.06,4.06,0,0,1,1,.1v.76a3.18,3.18,0,0,0-1-.14,2.45,2.45,0,0,0-2,.78A3.89,3.89,0,0,0,53,95.31h0a2.1,2.1,0,0,1,1.9-.91,2.25,2.25,0,0,1,1.69.63,2.28,2.28,0,0,1,.62,1.7,2.53,2.53,0,0,1-.68,1.89,2.44,2.44,0,0,1-1.83.69,2.4,2.4,0,0,1-2-.9,3.9,3.9,0,0,1-.7-2.5Zm2.68,2.66a1.54,1.54,0,0,0,1.2-.48,1.91,1.91,0,0,0,.43-1.36,1.74,1.74,0,0,0-.4-1.2,1.54,1.54,0,0,0-1.19-.44,2,2,0,0,0-.9.2,1.64,1.64,0,0,0-.65.54,1.2,1.2,0,0,0-.25.71,2.44,2.44,0,0,0,.22,1,1.88,1.88,0,0,0,.62.74,1.54,1.54,0,0,0,.96.29Z" fill="#fff"/>
  <path id="Path_183" data-name="Path 183" d="M75.52,89a3,3,0,0,1,2,.61,2,2,0,0,1,.73,1.65,2.38,2.38,0,0,1-.79,1.88,3.24,3.24,0,0,1-2.17.68,4.09,4.09,0,0,1-2.06-.42v-.84a3.09,3.09,0,0,0,1,.37,4.821,4.821,0,0,0,1.12.13,2.24,2.24,0,0,0,1.49-.44,1.55,1.55,0,0,0,.53-1.26q0-1.62-2-1.62a7.75,7.75,0,0,0-1.39.16l-.47-.29L73.7,86h4v.81H74.47l-.2,2.31A6.689,6.689,0,0,1,75.52,89Z" fill="#fff"/>
  <path id="Path_184" data-name="Path 184" d="M94.08,77H92.89v1.77H92V77H88.15v-.77l3.78-5.21h1V76.2h1.19Zm-2-.8V71.97h0a9.052,9.052,0,0,1-.49.84l-2.5,3.43Z" fill="#fff"/>
  <path id="Path_185" data-name="Path 185" d="M99.05,52.52a1.71,1.71,0,0,1-.43,1.21,2.2,2.2,0,0,1-1.21.63h0a2.31,2.31,0,0,1,1.42.59,1.71,1.71,0,0,1,.47,1.24,2,2,0,0,1-.79,1.7,3.67,3.67,0,0,1-2.25.6,5.9,5.9,0,0,1-1.16-.1,4,4,0,0,1-1-.32v-.83a5.49,5.49,0,0,0,2.21.5c1.38,0,2.07-.52,2.07-1.57s-.76-1.4-2.28-1.4h-.79v-.75h.8a2.52,2.52,0,0,0,1.48-.4,1.31,1.31,0,0,0,.55-1.11,1.06,1.06,0,0,0-.41-.88,1.65,1.65,0,0,0-1.09-.32,3.42,3.42,0,0,0-1,.13,4.2,4.2,0,0,0-1.06.51l-.46-.59a3.79,3.79,0,0,1,1.13-.59,4.33,4.33,0,0,1,1.35-.21,2.85,2.85,0,0,1,1.81.51,1.72,1.72,0,0,1,.64,1.45Z" fill="#fff"/>
  <path id="Path_186" data-name="Path 186" d="M93.7,38H88.45v-.75l2.1-2a14.908,14.908,0,0,0,1.27-1.34,3.43,3.43,0,0,0,.46-.79,2.16,2.16,0,0,0,.15-.81,1.27,1.27,0,0,0-.39-1A1.51,1.51,0,0,0,91,31a2.69,2.69,0,0,0-.94.16,3.45,3.45,0,0,0-1,.57l-.48-.6a3.73,3.73,0,0,1,2.4-.88,2.58,2.58,0,0,1,1.76.55,1.9,1.9,0,0,1,.64,1.5,2.76,2.76,0,0,1-.43,1.45,9,9,0,0,1-1.59,1.82l-1.75,1.65H93.7Z" fill="#fff"/>
  <path id="Path_187" data-name="Path 187" d="M76.37,23.11h-.88v-6.8a1.84,1.84,0,0,1-.25.23c-.1.09-.53.43-1.3,1L73.5,17l2.11-1.58h.76Z" fill="#fff"/>
  <path id="Path_188" data-name="Path 188" d="M52.1,17.65h-.88v-6.8l-.25.23c-.1.08-.53.43-1.3,1l-.48-.6L51.3,9.9h.76Z" fill="#fff"/>
  <path id="Path_189" data-name="Path 189" d="M60.38,17.65H55.14v-.76l2.1-2a14.459,14.459,0,0,0,1.26-1.34,3.24,3.24,0,0,0,.46-.78,2.25,2.25,0,0,0,.15-.82,1.3,1.3,0,0,0-.38-1,1.53,1.53,0,0,0-1.08-.36,2.69,2.69,0,0,0-.94.16,3.7,3.7,0,0,0-1,.57l-.48-.59a3.76,3.76,0,0,1,2.4-.89,2.58,2.58,0,0,1,1.76.56A1.87,1.87,0,0,1,60,11.87a2.74,2.74,0,0,1-.43,1.45A9,9,0,0,1,58,15.14l-1.74,1.65h4.1Z" fill="#fff"/>
</svg>
