<svg xmlns="http://www.w3.org/2000/svg" width="23.292" height="19.374" viewBox="0 0 23.292 19.374">
  <g id="Group_15715" data-name="Group 15715" transform="translate(7935 3535)">
    <path id="Path_1" data-name="Path 1" d="M8.91,18a3.8,3.8,0,0,1-1.18-7.41,3.43,3.43,0,0,1,0-.56A4,4,0,0,1,15,7.67a4.57,4.57,0,0,1,1-.12,4.37,4.37,0,0,1,2.6.87A9.36,9.36,0,1,0,12.78,18Z" transform="translate(-7934.923 -3534.957)" fill="#ffe068"/>
    <path id="Path_2" data-name="Path 2" d="M19.91,12.74h-.32a4.13,4.13,0,0,0,.08-.78,3.63,3.63,0,0,0-5-3.36A3.262,3.262,0,1,0,8.7,11.23a3,3,0,0,0,.21,6h7.93a3.3,3.3,0,1,0,3.07-4.5Z" transform="translate(-7934.923 -3534.957)" fill="#fff"/>
  </g>
</svg>
