<svg xmlns="http://www.w3.org/2000/svg" width="14.335" height="11.739" viewBox="0 0 14.335 11.739">
  <g id="Group_15718" data-name="Group 15718" transform="translate(-950.263 -158.625)">
    <path id="Path_281" data-name="Path 281" d="M7.136,1.451A9.014,9.014,0,0,1,13.1,3.695a.726.726,0,0,0,.994-.029h0a.722.722,0,0,0-.028-1.052,10.482,10.482,0,0,0-13.852,0A.723.723,0,0,0,.181,3.666h0a.726.726,0,0,0,.994.029A9.014,9.014,0,0,1,7.136,1.451Z" transform="translate(950.295 158.626)" fill="gray"/>
    <path id="Path_282" data-name="Path 282" d="M64.55,84.994a6.31,6.31,0,0,1,4.06,1.476.722.722,0,0,0,.973-.048h0a.725.725,0,0,0-.045-1.07,7.769,7.769,0,0,0-9.972,0,.725.725,0,0,0-.045,1.07h0a.722.722,0,0,0,.973.048A6.309,6.309,0,0,1,64.55,84.994Z" transform="translate(892.881 77.996)" fill="gray"/>
    <path id="Path_283" data-name="Path 283" d="M121.919,168.307a3.617,3.617,0,0,1,2.155.71.731.731,0,0,0,.954-.062h0a.728.728,0,0,0-.087-1.1,5.071,5.071,0,0,0-6.045,0,.728.728,0,0,0-.087,1.1h0a.731.731,0,0,0,.955.062A3.616,3.616,0,0,1,121.919,168.307Z" transform="translate(835.512 -2.547)" fill="gray"/>
    <circle id="Ellipse_77" data-name="Ellipse 77" cx="1.526" cy="1.526" r="1.526" transform="matrix(0.158, -0.987, 0.987, 0.158, 955.683, 169.883)" fill="gray"/>
  </g>
</svg>
