<svg xmlns="http://www.w3.org/2000/svg" width="14.335" height="11.306" viewBox="0 0 14.335 11.306">
  <g id="Group_15715" data-name="Group 15715" transform="translate(-14697.419 -781.367)">
    <path id="Path_1843" data-name="Path 1843" d="M7.136,1.451A9.014,9.014,0,0,1,13.1,3.695a.726.726,0,0,0,.994-.029h0a.722.722,0,0,0-.028-1.052,10.482,10.482,0,0,0-13.852,0A.723.723,0,0,0,.181,3.666h0a.726.726,0,0,0,.994.029A9.014,9.014,0,0,1,7.136,1.451Z" transform="translate(14697.451 781.367)" fill="#95ff45"/>
    <path id="Path_1844" data-name="Path 1844" d="M64.55,84.994a6.31,6.31,0,0,1,4.06,1.476.722.722,0,0,0,.973-.048h0a.725.725,0,0,0-.045-1.07,7.769,7.769,0,0,0-9.972,0,.725.725,0,0,0-.045,1.07h0a.722.722,0,0,0,.973.048A6.309,6.309,0,0,1,64.55,84.994Z" transform="translate(14640.037 700.535)" fill="#95ff45"/>
    <path id="Path_1845" data-name="Path 1845" d="M121.919,168.307a3.617,3.617,0,0,1,2.155.71.731.731,0,0,0,.954-.062h0a.728.728,0,0,0-.087-1.1,5.071,5.071,0,0,0-6.045,0,.728.728,0,0,0-.087,1.1h0a.731.731,0,0,0,.955.062A3.616,3.616,0,0,1,121.919,168.307Z" transform="translate(14582.67 619.922)" fill="#95ff45"/>
    <circle id="Ellipse_331" data-name="Ellipse 331" cx="1.526" cy="1.526" r="1.526" transform="matrix(0.158, -0.987, 0.987, 0.158, 14702.84, 792.191)" fill="#95ff45"/>
  </g>
</svg>
